<?xml version="1.0" standalone="no"?>
<!DOCTYPE svg PUBLIC "-//W3C//DTD SVG 20010904//EN"
 "http://www.w3.org/TR/2001/REC-SVG-20010904/DTD/svg10.dtd">
<svg version="1.0" xmlns="http://www.w3.org/2000/svg"
 width="300.000000pt" height="370.000000pt" viewBox="0 0 300.000000 370.000000"
 preserveAspectRatio="xMidYMid meet">
<metadata>
Created by potrace 1.10, written by Peter Selinger 2001-2011
</metadata>
<g transform="translate(0.000000,370.000000) scale(0.050000,-0.050000)"
fill="#000000" stroke="none">
<path d="M852 7369 c-17 -17 -35 -30 -41 -30 -6 1 -11 -3 -11 -9 0 -5 0 -16 0
-22 0 -7 13 -2 28 11 23 18 33 16 50 -13 11 -20 21 -25 21 -12 1 13 -9 30 -22
38 -16 10 -12 22 14 41 20 15 27 27 14 27 -12 0 -36 -14 -53 -31z"/>
<path d="M988 7374 c41 -30 139 -32 148 -3 3 10 -18 22 -45 25 -31 4 -51 -3
-51 -19 0 -19 -5 -20 -24 -1 -13 13 -33 24 -44 24 -11 0 -3 -12 16 -26z"/>
<path d="M1486 7352 c-1 -23 2 -31 8 -17 5 14 27 25 49 25 25 0 34 -9 25 -23
-9 -15 -5 -18 9 -9 13 8 19 22 13 32 -6 9 1 20 15 25 14 5 -7 8 -46 8 -58 0
-71 -7 -73 -41z"/>
<path d="M1660 7379 c0 -12 9 -16 20 -9 11 7 20 3 20 -9 0 -11 17 -21 37 -21
20 0 36 14 36 30 0 20 -19 30 -56 30 -31 0 -57 -10 -57 -21z"/>
<path d="M1830 7381 c5 -10 -1 -21 -15 -26 -14 -5 72 -7 190 -6 118 2 215 -5
215 -14 0 -10 9 -12 20 -5 12 7 15 23 7 34 -8 14 -4 16 13 6 15 -9 70 -18 124
-20 53 -2 103 -11 111 -20 8 -9 5 -11 -8 -3 -13 7 -27 2 -32 -12 -7 -16 9 -25
45 -25 30 0 51 9 47 21 -5 12 13 21 39 21 58 0 51 -71 -9 -87 -20 -5 -32 -18
-26 -27 7 -10 -2 -24 -20 -30 -17 -7 -25 -22 -18 -33 8 -12 4 -15 -9 -8 -12 8
-31 -3 -42 -24 -22 -41 -111 -77 -91 -36 7 13 -2 6 -20 -16 -19 -24 -31 -29
-31 -12 0 21 -6 21 -30 1 -24 -20 -37 -20 -65 2 -19 15 -29 19 -21 10 19 -22
-98 -118 -124 -102 -12 7 -19 6 -17 -4 11 -37 -27 -106 -49 -92 -35 22 -74 25
-74 6 0 -44 -121 -104 -156 -77 -24 19 -23 13 6 -22 22 -26 29 -41 15 -33 -14
8 -25 5 -25 -7 0 -11 -19 -21 -41 -21 -26 0 -36 8 -27 23 9 14 5 18 -9 9 -13
-8 -23 -3 -23 12 -1 19 -6 18 -20 -4 -14 -21 -10 -37 13 -54 28 -21 27 -24 -9
-21 -23 2 -41 8 -40 14 3 37 -7 61 -25 61 -12 0 -15 -11 -6 -25 8 -15 -1 -12
-23 5 -21 17 -32 20 -24 7 19 -32 -45 -53 -78 -25 -15 12 -23 30 -17 39 5 9
-1 23 -14 31 -14 9 -18 6 -9 -9 9 -14 1 -23 -18 -23 -18 0 -27 -8 -21 -18 12
-21 -40 -17 -61 3 -7 8 -29 5 -48 -5 -19 -10 -40 -14 -45 -8 -6 6 -18 0 -26
-14 -10 -16 -7 -19 11 -8 17 10 21 8 12 -6 -7 -12 -28 -17 -46 -10 -19 7 -27
5 -21 -7 7 -10 -9 -19 -35 -19 -40 0 -44 5 -24 29 21 26 18 26 -22 5 -25 -13
-41 -31 -36 -39 18 -29 -85 -9 -117 23 -37 37 -60 45 -42 15 7 -10 -4 -28 -24
-39 -19 -12 -26 -21 -14 -21 12 -1 31 9 43 21 15 15 26 15 36 -2 8 -13 4 -34
-8 -46 -12 -12 -22 -15 -22 -6 0 9 -13 6 -30 -8 -16 -13 -44 -19 -61 -12 -22
8 -40 -9 -61 -59 -24 -59 -37 -69 -74 -59 -26 8 -34 6 -20 -4 27 -19 10 -53
-31 -62 -18 -4 -24 6 -16 25 8 22 -1 31 -33 32 -38 0 -40 4 -14 25 47 37 47
212 0 209 -20 -2 -31 -14 -26 -29 15 -38 -15 -32 -47 9 -21 27 -26 28 -22 5 3
-16 14 -39 25 -50 11 -11 17 -18 12 -15 -13 7 -72 -83 -66 -101 3 -10 -4 -12
-15 -5 -10 7 -14 27 -7 45 9 22 5 28 -12 18 -13 -9 -21 -32 -18 -53 3 -20 -3
-38 -14 -38 -11 -1 -20 10 -20 24 0 14 -20 28 -45 31 -25 4 -40 15 -34 25 6
10 -3 13 -20 7 -18 -7 -36 1 -43 20 -7 17 -22 26 -33 19 -14 -9 -17 -1 -9 19
10 27 4 29 -35 14 -54 -20 -103 8 -117 70 -5 22 -10 -561 -12 -1296 -2 -1064
3 -1333 23 -1322 20 11 20 8 0 -13 -19 -21 -25 -236 -25 -934 0 -976 -2 -959
101 -905 30 16 39 17 30 2 -7 -12 -4 -22 8 -22 11 0 21 9 21 20 0 11 10 20 21
20 12 0 16 -9 9 -20 -7 -11 1 -20 18 -20 20 0 27 15 21 45 l-8 45 37 -48 c20
-26 42 -39 49 -28 6 11 6 26 -1 34 -25 25 -22 65 5 65 15 0 23 -7 18 -15 -5
-8 -1 -21 11 -28 11 -7 20 1 20 18 0 16 10 36 23 44 14 9 18 5 9 -9 -8 -13 -4
-23 9 -23 15 0 19 18 11 50 -9 37 -5 50 18 50 16 0 30 -10 30 -22 0 -17 7 -17
27 0 21 17 33 16 51 -6 16 -19 17 -33 3 -41 -12 -8 -21 -2 -22 13 0 16 -8 12
-21 -9 -11 -19 -15 -44 -8 -55 7 -11 3 -20 -9 -20 -25 0 -30 -333 -5 -343 9
-4 -15 -113 -53 -243 -47 -157 -76 -227 -88 -210 -11 16 -13 -1 -5 -44 8 -45
6 -60 -6 -44 -13 19 -25 1 -44 -64 -24 -88 -80 -166 -80 -113 0 13 -9 18 -20
11 -11 -7 -20 -1 -20 12 0 14 -6 19 -13 12 -7 -8 -25 2 -40 21 -21 27 -26 28
-22 5 3 -16 -6 -28 -20 -25 -14 3 -25 -5 -25 -16 0 -12 -7 -17 -16 -12 -9 6
-17 -9 -19 -33 -2 -40 -1 -41 23 -9 14 19 32 29 39 22 7 -8 1 -27 -12 -44 -18
-21 -18 -26 -1 -17 13 8 29 5 36 -6 7 -11 21 -16 31 -9 10 6 13 -4 6 -22 -10
-26 -16 -27 -31 -6 -13 18 -16 6 -11 -39 5 -36 1 -70 -8 -76 -15 -9 -27 53
-19 98 2 10 -6 12 -16 5 -10 -6 -23 4 -28 24 -7 27 -10 24 -12 -10 -1 -25 6
-45 16 -45 10 0 16 -22 13 -49 -3 -27 0 -47 7 -45 7 2 12 -5 12 -16 0 -11 -7
-18 -16 -15 -10 4 -11 -3 -5 -14 7 -11 4 -37 -8 -58 -15 -29 -13 -45 9 -63 31
-26 21 -69 -11 -49 -10 6 -13 -4 -6 -22 9 -23 17 -25 27 -9 9 15 18 9 25 -18
6 -23 23 -41 38 -40 20 1 21 4 2 11 -14 6 -25 42 -25 80 0 38 -7 65 -16 60 -9
-6 -17 8 -19 31 l-3 42 29 -41 c16 -23 32 -60 35 -83 18 -119 44 -64 44 94 1
163 65 375 103 338 5 -6 -4 -38 -22 -71 -89 -173 -69 -507 36 -606 29 -27 33
-38 13 -33 -16 3 -41 24 -54 46 -38 62 -31 28 20 -97 26 -63 54 -107 63 -98
10 8 11 4 4 -9 -24 -42 42 -163 111 -205 122 -75 226 -38 580 208 218 152 443
596 356 701 -31 37 71 357 176 549 50 93 95 159 99 147 16 -49 -213 -634 -261
-668 -11 -8 -9 -18 2 -26 11 -7 24 -1 29 13 5 14 25 -65 44 -175 19 -110 71
-351 115 -535 l79 -335 59 0 c32 0 58 8 58 17 0 9 20 27 45 39 25 12 33 22 19
23 -15 0 -46 -9 -70 -22 -43 -22 -43 -22 -8 18 27 31 30 45 12 56 -16 10 -19
7 -8 -11 10 -17 8 -21 -5 -13 -40 25 -14 82 37 81 26 0 46 -11 43 -24 -2 -12
13 -32 35 -44 39 -21 55 -2 25 28 -8 9 -15 26 -15 39 0 13 -23 24 -50 25 -88
3 -97 7 -90 43 4 19 9 37 11 40 13 16 7 57 -10 71 -12 9 -1 11 24 4 54 -15 58
5 10 44 -19 16 -22 22 -7 14 22 -11 25 -6 12 24 -9 21 -37 118 -62 215 -43
168 -77 250 -68 163 8 -75 1 -103 -18 -73 -9 15 -14 47 -9 70 4 24 2 32 -4 18
-19 -40 -47 -29 -39 15 4 22 -1 40 -11 40 -11 0 -19 14 -19 32 0 21 11 28 31
20 17 -6 26 -4 20 6 -6 10 2 23 18 29 16 6 32 0 36 -13 5 -13 10 21 12 75 2
54 -2 92 -10 85 -7 -8 -26 -3 -41 9 -21 18 -24 16 -14 -10 7 -18 20 -33 30
-33 10 0 18 -15 18 -32 0 -28 -5 -29 -35 -5 -31 24 -32 23 -10 -5 32 -41 -6
-80 -66 -68 -21 4 -46 8 -54 8 -8 1 -15 12 -15 23 0 12 11 15 25 6 17 -10 16
-4 -2 19 -15 18 -36 29 -45 23 -26 -17 -25 -12 59 183 42 98 102 254 133 346
45 137 59 161 75 132 23 -41 163 177 145 226 -5 14 -2 21 7 16 17 -11 125 234
173 394 43 143 9 111 -76 -72 -83 -180 -158 -295 -144 -224 4 22 9 42 11 45 2
3 6 12 8 20 2 8 16 42 30 75 14 33 26 106 28 163 2 57 9 93 16 82 8 -12 19 18
27 67 7 48 16 106 20 128 4 22 8 65 8 96 1 32 11 51 22 44 11 -7 14 1 8 19 -7
17 -2 31 11 31 13 0 18 8 12 18 -6 10 3 23 20 30 18 6 26 20 20 30 -6 10 -3
22 7 25 18 7 43 106 48 192 1 25 13 45 27 45 32 0 73 74 56 101 -6 11 -1 18
12 14 13 -3 26 11 30 30 3 19 -2 35 -12 35 -10 0 -13 13 -6 30 6 16 26 30 43
30 28 0 28 3 -2 25 -21 16 -27 35 -16 52 11 18 27 1 52 -60 64 -160 70 -194
33 -204 -25 -6 -24 -9 7 -11 33 -2 54 -39 105 -182 l63 -180 -54 -4 c-30 -2
-70 -3 -89 -3 -19 0 -35 -7 -35 -16 0 -10 -19 -17 -41 -17 -28 0 -36 8 -27 25
8 14 -3 9 -25 -10 -22 -19 -46 -29 -54 -22 -7 8 -13 3 -13 -11 0 -13 -7 -20
-16 -15 -46 29 19 -357 78 -460 33 -59 55 -107 47 -107 -7 0 1 -22 18 -49 34
-51 39 -161 64 -1497 6 -328 19 -616 29 -640 13 -28 15 40 7 196 -15 314 -39
1804 -30 1832 4 12 34 -25 65 -83 l58 -105 3 -712 c1 -392 9 -815 17 -942 8
-126 10 184 5 690 l-10 920 130 -160 c183 -224 325 -358 358 -339 15 8 20 8
12 -1 -20 -23 129 -153 161 -140 14 5 21 1 15 -9 -7 -10 -2 -24 9 -31 14 -8
18 -205 12 -586 -7 -481 -6 -515 7 -214 9 198 18 479 21 625 2 146 12 270 21
275 9 6 12 -12 7 -41 -12 -67 21 -50 184 99 68 61 128 105 135 98 7 -7 13 0
13 16 1 22 4 23 17 2 13 -21 22 -20 42 5 14 17 38 31 53 31 16 0 28 7 28 16 0
8 -18 15 -40 15 -22 0 -40 -11 -40 -25 0 -18 -19 -15 -65 11 l-66 37 -119
-109 c-176 -160 -168 -158 -313 -52 -370 270 -865 923 -899 1186 -28 219 -25
236 37 248 30 6 128 26 217 44 l162 33 -125 317 c-69 175 -144 344 -168 378
-34 48 -39 68 -21 100 12 23 15 41 8 41 -8 0 2 18 22 40 20 22 27 40 16 40
-14 0 -14 34 -2 102 41 228 90 256 131 77 l24 -109 -11 130 c-19 225 6 125 90
-356 101 -576 102 -631 1 -144 -42 204 -77 352 -78 330 -1 -22 36 -238 81
-480 l83 -440 553 5 c629 7 602 2 603 89 3 119 36 159 38 45 0 -56 -10 -112
-23 -125 -19 -19 -16 -24 10 -24 32 0 52 178 34 300 -9 63 46 240 76 240 25 0
25 -5 1 -35 -24 -32 -24 -32 8 -8 44 35 45 58 1 67 -28 5 -25 15 21 65 53 56
55 57 66 16 6 -23 37 -52 68 -65 32 -14 57 -30 56 -37 -5 -36 5 -68 16 -56 8
7 30 -2 50 -20 102 -92 18 22 -104 142 -96 95 -136 148 -128 170 7 17 16 46
19 65 4 19 21 64 37 100 16 36 40 100 53 141 52 168 95 119 112 -125 17 -245
22 -292 48 -397 11 -47 19 -97 17 -110 -6 -41 26 -93 58 -93 24 0 28 16 17 83
-13 82 -13 82 32 53 25 -16 114 -49 196 -75 164 -50 196 -69 159 -92 -17 -10
-20 -7 -9 11 11 18 8 21 -8 11 -30 -18 -11 -40 34 -41 19 0 32 -12 29 -26 -4
-15 3 -21 15 -14 11 7 20 2 20 -10 0 -13 13 -10 31 9 52 51 56 39 42 -154 -17
-249 -87 -474 -137 -442 -14 8 -17 4 -8 -10 8 -13 23 -19 32 -13 36 23 41 -33
6 -66 -21 -19 -26 -26 -12 -17 16 11 26 9 26 -5 0 -13 -14 -29 -32 -35 -21 -8
-24 -17 -9 -26 16 -10 14 -32 -5 -78 -25 -59 -27 -49 -30 149 -3 172 2 208 23
191 21 -18 23 0 12 93 -17 145 -40 250 -52 237 -9 -9 -35 -554 -36 -766 -1
-57 -7 -100 -13 -96 -20 13 -39 -198 -19 -218 11 -11 16 1 13 29 -2 27 2 71
10 98 11 37 15 26 13 -45 -2 -83 -34 -193 -35 -120 0 14 -7 25 -17 25 -9 0
-17 -11 -17 -25 -3 -54 -27 -153 -75 -305 -34 -105 -44 -165 -31 -178 13 -13
20 -12 20 3 0 12 19 19 43 14 23 -4 36 -1 28 7 -8 8 -23 14 -33 14 -21 0 -25
40 -3 40 8 0 27 8 43 18 32 20 13 -283 -20 -317 -11 -12 -18 -10 -18 4 0 13
-13 19 -29 13 -23 -9 -24 -17 -5 -38 13 -14 30 -22 37 -18 8 5 11 -15 8 -44
-3 -29 -18 -60 -32 -69 -20 -12 -21 -22 -3 -44 23 -28 11 -241 -14 -227 -6 4
-14 -61 -16 -144 -3 -112 -13 -156 -35 -169 -17 -9 -31 -28 -31 -41 0 -15 9
-13 22 6 17 24 20 22 12 -13 -5 -23 -1 -55 8 -70 12 -19 17 -10 18 29 0 31 7
52 16 46 9 -5 14 14 10 44 -19 144 63 572 114 600 50 27 50 27 3 17 -46 -10
-47 -7 -35 71 14 84 81 696 99 906 12 133 46 249 81 280 13 11 25 38 26 61 2
23 21 95 43 160 21 65 55 203 75 305 44 232 70 204 70 -76 -1 -211 -17 -303
-86 -474 l-42 -104 68 -88 68 -89 36 92 c96 245 20 1023 -114 1157 -56 57
-550 287 -625 291 -15 1 -20 46 -16 133 4 91 1 110 -8 62 -11 -55 -20 -15 -41
185 -24 226 -32 255 -65 255 -54 0 -67 -7 -64 -35 1 -13 -6 -20 -15 -13 -25
14 -131 -226 -181 -409 -54 -196 -35 -204 23 -9 25 85 62 182 83 215 49 81 47
63 -13 -88 -47 -120 -187 -601 -225 -771 -14 -65 -18 -37 -21 147 -3 167 -20
308 -67 530 -66 319 -85 460 -60 445 9 -6 28 8 44 29 30 42 79 53 79 18 0 -12
9 -16 20 -9 11 7 20 2 20 -10 0 -12 10 -16 23 -8 15 9 18 5 9 -9 -8 -13 -23
-19 -32 -13 -9 6 -23 2 -30 -10 -7 -11 -2 -20 11 -20 17 0 17 -9 -2 -32 -22
-26 -22 -34 2 -49 22 -14 23 -18 3 -19 -15 0 -21 -8 -15 -18 6 -10 0 -22 -14
-27 -19 -7 -18 -17 5 -46 24 -29 24 -33 2 -20 -22 14 -26 7 -15 -31 7 -26 13
-55 13 -63 0 -8 10 -15 21 -15 12 0 16 8 10 18 -21 34 33 254 85 342 29 50 51
96 49 103 -5 19 128 -20 230 -66 73 -33 85 -47 87 -102 l3 -65 13 60 c8 37 25
60 46 60 18 0 41 8 50 17 9 9 7 15 -4 12 -46 -9 -55 3 -21 28 31 23 32 26 4
26 -18 0 -38 -16 -44 -36 -6 -20 -21 -37 -32 -37 -10 0 -14 8 -8 18 6 10 -3
23 -21 30 -32 12 -32 58 0 52 18 -3 51 38 52 64 0 27 -77 58 -90 36 -7 -12 -6
-20 4 -18 38 6 66 -3 66 -23 0 -12 -8 -16 -18 -10 -10 6 -22 0 -27 -14 -5 -15
-42 -25 -90 -25 -45 0 -77 7 -72 15 16 26 -81 52 -109 30 -18 -15 -32 -15 -47
0 -14 14 -14 25 1 34 12 7 22 2 22 -12 0 -13 19 -5 41 20 23 24 52 38 65 30
13 -7 17 -6 9 3 -8 9 -5 28 7 43 17 20 8 43 -40 97 -34 39 -62 81 -62 92 0
100 -52 -65 -86 -272 -5 -34 -13 -29 -50 30 -51 82 -56 131 -14 147 17 7 30 1
30 -13 1 -31 101 239 113 306 9 45 4 43 -54 -25 -34 -41 -71 -75 -80 -75 -30
0 24 120 63 141 48 26 104 134 90 172 -7 17 -3 24 10 16 11 -7 19 -1 17 14 -7
54 2 79 24 65 16 -10 19 2 9 41 -9 35 -6 50 7 41 37 -23 22 -158 -28 -245 -45
-78 -46 -90 -20 -140 16 -30 29 -95 29 -145 0 -94 63 -223 89 -182 8 13 22 18
32 12 10 -7 24 11 31 39 7 28 21 51 31 51 11 0 14 -9 7 -20 -7 -11 1 -15 17
-8 16 6 34 28 39 49 6 23 28 39 52 39 23 0 42 10 42 21 0 12 8 16 18 10 11 -6
32 2 49 19 37 36 60 39 43 5 -7 -14 0 -9 17 12 16 20 44 47 61 60 23 17 26 31
10 53 -18 24 -19 22 -9 -10 11 -33 9 -35 -13 -14 -21 22 -21 31 4 50 38 30 46
101 10 87 -34 -13 -16 59 31 127 19 28 33 59 32 70 -2 11 26 23 62 26 36 4 61
14 56 23 -6 9 5 29 23 44 29 23 31 23 17 -1 -12 -20 -10 -24 8 -13 18 11 18
22 3 37 -32 32 -27 74 10 74 20 0 28 -11 21 -30 -7 -16 -3 -30 8 -30 10 0 19
7 19 15 0 9 32 33 70 54 62 33 81 64 72 117 -5 29 -6 203 -2 219 5 16 6 81 2
116 -1 12 -12 15 -24 8 -16 -10 -14 -19 5 -31 26 -17 23 -20 -26 -25 -31 -4
-47 -53 -17 -53 12 0 17 9 10 20 -7 11 2 14 21 7 29 -11 25 -18 -19 -41 -29
-15 -47 -37 -40 -49 7 -12 1 -29 -14 -39 -23 -14 -23 -17 -1 -18 16 0 23 -12
15 -31 -6 -18 -3 -26 8 -19 11 7 20 -11 20 -40 0 -34 8 -47 23 -38 16 10 18 5
5 -14 -9 -15 -18 -35 -18 -43 0 -20 -10 -21 -77 -4 -37 9 -48 20 -33 29 18 11
13 27 -18 58 -23 23 -42 51 -42 62 0 11 -16 20 -35 20 -29 1 -30 4 -6 19 23
14 18 21 -24 31 -36 9 -49 23 -41 44 9 24 15 24 28 3 11 -18 15 -12 13 19 -2
29 -13 41 -31 35 -19 -8 -23 1 -13 32 10 33 7 40 -15 32 -34 -13 -41 42 -10
81 17 21 24 21 39 0 13 -19 16 -14 10 15 -5 22 3 51 17 65 35 33 49 30 35 -6
-6 -16 -2 -30 10 -30 11 0 16 22 11 49 -7 41 -2 48 27 39 28 -10 30 -8 6 9
-16 11 -36 16 -44 11 -8 -5 -13 9 -12 32 2 22 11 41 19 43 9 1 27 3 41 5 13 1
27 20 30 42 3 30 1 32 -10 10 -8 -17 -41 -31 -74 -33 -53 -2 -55 0 -22 25 20
15 47 21 59 14 15 -8 14 -4 -1 13 -17 18 -33 19 -62 4 -45 -25 -67 -12 -51 29
5 15 2 28 -8 28 -11 0 -17 37 -14 81 3 63 -2 79 -24 71 -18 -7 -28 3 -28 29 0
22 -13 39 -31 39 -17 0 -26 -9 -19 -20 7 -11 4 -20 -6 -20 -30 0 -43 107 -17
139 18 22 17 25 -2 14 -20 -12 -21 -5 -3 34 16 35 17 72 2 126 -15 60 -20 66
-22 27 -3 -63 -41 -14 -42 53 0 23 -14 48 -31 55 -20 7 -26 3 -17 -11 9 -15 5
-18 -10 -8 -14 8 -19 29 -13 46 10 26 7 26 -19 5 -26 -22 -29 -20 -18 7 7 18
3 33 -8 33 -11 0 -24 -10 -28 -21 -4 -12 -32 1 -63 30 -31 28 -64 47 -74 40
-10 -6 -13 4 -5 24 8 21 16 26 21 11 11 -33 38 -30 38 3 0 15 -18 26 -41 25
-27 -1 -40 9 -37 28 4 22 -2 20 -23 -7 -28 -35 -30 -35 -73 8 l-45 45 48 37
c40 31 42 35 8 24 -22 -7 -33 -6 -25 3 8 9 4 29 -8 44 -18 22 -15 24 15 13 33
-13 33 -11 7 17 -16 18 -37 27 -46 21 -9 -5 -7 9 6 33 22 42 61 58 61 24 0
-10 15 -23 33 -30 27 -11 28 -8 8 17 -21 25 -14 27 47 17 48 -7 72 -3 72 12 0
17 11 18 37 3 21 -11 43 -14 50 -7 27 26 11 39 -47 39 -33 0 -60 -7 -60 -16 0
-9 -10 -17 -21 -17 -12 0 -16 9 -9 20 8 13 -205 20 -617 19 -561 0 -630 -3
-641 -32 -11 -27 -8 -28 18 -7 43 35 40 26 -50 -162 -71 -149 -80 -159 -74
-93 7 85 -10 76 -43 -23 -29 -86 -31 -206 -3 -162 14 22 18 13 14 -34 l-4 -64
-60 54 c-117 106 -122 168 -20 281 38 42 63 84 55 93 -8 9 -4 10 10 2 33 -19
131 58 139 109 6 39 -7 40 -525 38 -291 -1 -525 -9 -519 -18z m1170 -30 c0
-16 10 -35 23 -43 14 -9 18 -5 9 9 -8 13 -5 23 7 23 11 0 21 -13 21 -30 0 -16
-14 -30 -32 -30 -22 0 -28 -11 -19 -35 11 -28 8 -30 -11 -11 -19 19 -30 17
-51 -10 -23 -30 -25 -27 -19 26 13 105 72 188 72 101z m921 -140 c-26 -28 -56
-44 -67 -37 -11 7 -14 2 -6 -10 8 -13 -13 -36 -50 -55 -34 -18 -56 -22 -49
-10 10 16 -3 18 -42 8 -31 -8 -106 -25 -167 -39 l-110 -24 103 -2 c152 -3 326
-65 537 -190 103 -62 235 -123 293 -137 101 -23 103 -25 47 -37 -91 -20 -254
-20 -242 -1 10 16 -261 163 -300 163 -9 0 25 -26 74 -57 50 -32 144 -119 209
-195 66 -75 162 -180 214 -233 52 -52 88 -95 80 -94 -41 2 -110 61 -206 174
-58 69 -108 125 -112 125 -49 0 308 -436 412 -503 l89 -57 -134 0 c-107 0
-208 38 -109 41 14 0 6 11 -18 25 -23 13 -82 71 -130 128 -47 56 -89 101 -92
98 -23 -24 232 -475 320 -567 35 -36 58 -65 51 -65 -49 0 -145 69 -236 169
-142 158 -116 98 60 -136 136 -181 234 -271 339 -309 116 -42 -181 -47 -318
-5 -71 22 -133 36 -138 31 -19 -20 42 -67 73 -57 29 9 29 8 4 -10 -32 -23 63
-145 107 -137 11 2 24 -12 28 -31 8 -35 -45 -52 -58 -19 -4 9 -43 34 -87 57
-44 22 -83 58 -87 78 -7 34 -4 35 28 8 20 -16 3 14 -38 68 -40 53 -73 111 -72
130 0 24 11 18 42 -23 29 -38 48 -49 65 -36 23 20 89 17 162 -6 22 -7 4 6 -40
28 l-80 41 100 -12 c70 -8 91 -6 71 8 -16 11 -36 16 -44 11 -58 -35 -291 185
-307 290 -92 593 -522 1104 -934 1110 -131 2 -131 4 -14 40 48 16 70 29 48 30
-75 3 -187 -39 -289 -109 -113 -78 -131 -59 -74 78 88 209 224 269 532 237
216 -23 404 -7 522 45 92 39 93 39 40 -18z m-1392 -300 c38 -15 99 -49 137
-75 l68 -46 -182 0 c-176 0 -187 -3 -322 -80 -77 -44 -149 -84 -160 -88 -11
-5 -47 -28 -80 -51 -33 -24 -93 -60 -134 -81 -61 -31 -70 -44 -54 -74 27 -49
27 -49 158 69 208 188 415 293 581 294 106 1 201 -47 108 -55 -179 -14 -483
-289 -568 -512 -30 -77 -11 -63 46 35 117 200 199 280 378 368 206 102 196
102 172 13 -25 -89 19 -326 84 -457 48 -94 269 -327 291 -306 7 8 36 -4 63
-26 71 -55 92 -48 36 12 -27 29 -54 50 -61 48 -95 -23 -390 469 -390 649 0
372 268 256 572 -247 77 -127 296 -381 330 -381 9 0 -25 43 -76 95 -51 52
-159 195 -239 317 -81 122 -201 273 -267 336 -143 137 -141 124 -28 173 408
175 975 -374 1067 -1035 10 -75 21 -250 24 -390 3 -146 15 -273 28 -298 19
-35 21 -14 13 112 -7 114 -3 152 13 142 13 -8 23 -30 23 -49 0 -19 8 -44 18
-54 9 -10 46 -94 82 -185 48 -119 86 -183 138 -228 43 -36 56 -55 32 -47 -22
8 -94 32 -160 53 -152 49 -208 88 -173 123 20 20 29 19 44 -5 10 -17 19 -23
19 -14 0 9 -19 41 -42 73 -45 60 -51 109 -66 501 -11 282 -48 401 -50 162 -2
-188 -52 -383 -145 -567 -63 -126 -84 -144 -67 -60 6 30 -11 -3 -39 -75 -61
-157 -61 -156 -10 -97 l40 47 -30 -77 c-39 -98 -39 -104 3 -70 29 23 32 23 23
-3 -6 -16 -27 -77 -46 -135 -67 -203 -520 -665 -653 -665 -108 0 -578 379
-662 533 -90 166 -147 322 -102 284 79 -68 88 -58 35 35 -69 120 -78 131 -64
72 8 -30 4 -44 -12 -38 -12 4 -24 25 -25 46 -3 47 -59 160 -90 179 -28 17 -61
-31 -48 -68 7 -18 0 -23 -20 -16 -51 20 43 -142 105 -180 67 -41 105 -86 105
-121 0 -41 -38 -30 -91 27 -27 29 -49 44 -49 33 0 -10 23 -40 50 -66 28 -26
50 -58 50 -70 0 -13 18 -45 40 -70 64 -73 26 -161 -104 -240 l-58 -35 136 -56
c156 -64 229 -117 147 -106 -45 6 -53 -5 -87 -118 -43 -142 -77 -168 -52 -40
20 103 20 138 1 89 -12 -31 -18 -32 -53 -7 -33 24 -34 33 -12 61 23 27 22 32
-6 32 -31 0 -40 -20 -34 -80 3 -26 1 -26 -16 -1 -12 18 -12 42 0 64 23 44 138
42 138 -3 1 -26 3 -26 19 -1 22 35 -45 91 -90 73 -17 -6 -29 1 -29 17 0 31
-69 60 -98 42 -10 -6 -48 -99 -83 -206 -66 -201 -134 -345 -163 -345 -25 0
-20 15 33 95 47 72 181 514 150 494 -8 -5 -18 23 -23 61 -6 50 0 70 19 70 15
0 22 -9 15 -20 -7 -11 2 -26 20 -33 18 -7 28 -23 23 -36 -6 -17 7 -21 44 -14
35 7 41 13 20 18 -19 4 -39 20 -45 37 -9 23 -3 25 26 9 20 -11 44 -13 53 -5 8
8 9 3 1 -11 -8 -14 -5 -25 6 -25 31 0 45 77 38 211 l-6 119 -37 -85 c-53 -120
-64 -106 -53 61 10 142 8 149 -57 234 -43 56 -65 74 -61 49 6 -43 -48 -158
-85 -181 -16 -10 -20 -1 -12 29 14 52 6 53 -62 7 -29 -20 -95 -61 -147 -91
l-94 -53 6 75 c8 109 1 116 -103 110 -104 -5 -96 5 20 24 140 24 76 46 -101
36 -201 -12 -362 24 -493 109 -43 29 -93 52 -110 52 -68 -1 -83 -7 -69 -29 8
-14 5 -18 -8 -10 -11 8 -27 5 -34 -7 -36 -59 -45 -8 -10 60 l41 80 -51 79
c-31 50 -60 76 -78 69 -32 -12 -66 30 -40 49 54 39 -7 274 -69 272 -24 -1 -92
-3 -153 -5 -60 -2 -110 -11 -110 -20 0 -9 32 -12 70 -8 62 7 70 3 71 -39 2
-58 17 -142 28 -152 4 -4 35 6 69 24 34 18 62 23 62 12 0 -11 -35 -38 -79 -60
-43 -22 -85 -51 -93 -64 -9 -14 -5 -18 9 -9 15 9 24 -2 25 -32 1 -25 4 -77 7
-116 3 -38 9 -196 13 -350 9 -326 2 -336 -156 -227 -53 37 -123 80 -156 97
-60 30 -60 31 -64 220 -3 105 -6 208 -8 230 -1 22 3 108 10 190 10 122 6 162
-23 216 -31 58 -31 68 -5 84 35 22 34 671 -2 805 -24 92 3 156 60 141 21 -5
44 -29 50 -53 6 -24 29 -64 52 -89 212 -227 269 -418 186 -623 -31 -78 11
-108 106 -76 41 14 77 39 80 55 4 17 17 66 29 110 12 44 27 106 33 138 11 55
84 149 214 273 52 51 55 61 35 119 l-22 63 67 -42 67 -41 112 50 c110 48 176
98 201 153 7 15 8 -6 4 -47 -7 -58 -3 -71 19 -63 16 6 29 19 29 29 0 10 14 18
31 18 19 0 26 -9 17 -23 -10 -17 16 -20 100 -10 67 8 110 6 104 -4 -7 -10 7
-23 31 -29 49 -13 139 40 296 176 299 258 444 323 590 261z m1461 -1657 c-38
-118 -128 -283 -145 -266 -6 6 17 72 51 147 34 74 68 170 75 213 12 63 18 71
34 43 13 -23 8 -67 -15 -137z m81 -349 c16 -41 43 -101 60 -133 43 -82 27 -82
-52 -1 -49 50 -68 89 -70 139 -3 92 26 89 62 -5z m-3402 -70 c-5 -25 -18 -48
-29 -52 -11 -3 -15 -15 -9 -25 6 -10 2 -18 -10 -18 -30 0 -26 31 9 60 33 27
20 69 -14 47 -13 -8 -16 -4 -8 10 26 42 70 26 61 -22z m110 -17 c-20 -37 -18
-39 18 -19 29 15 44 15 54 0 7 -12 26 -17 42 -11 16 7 34 -4 41 -23 7 -19 21
-40 30 -46 15 -11 21 -38 44 -194 5 -32 -4 -45 -30 -45 -19 0 -41 -9 -48 -20
-7 -11 7 -20 30 -20 27 0 37 -8 28 -23 -9 -14 -5 -18 9 -9 13 8 23 28 23 44 0
17 9 25 19 19 11 -7 14 -28 8 -47 -9 -29 -8 -29 11 -4 25 34 29 82 7 75 -8 -3
-15 4 -15 15 0 11 9 17 19 14 11 -4 2 14 -20 39 -36 43 -37 44 -1 17 36 -28
38 -27 28 24 -6 30 -3 50 7 44 9 -6 17 4 17 22 0 18 -9 27 -20 20 -11 -7 -14
2 -7 22 11 27 20 20 49 -34 31 -60 32 -73 7 -112 -25 -39 -25 -47 6 -67 32
-20 31 -21 -4 -10 -38 12 -38 12 -1 -29 29 -32 31 -39 6 -30 -22 9 -35 -3 -45
-43 -11 -43 -18 -49 -32 -26 -13 21 -18 22 -19 3 0 -14 13 -30 28 -36 32 -12
19 -89 -14 -82 -12 2 -23 -9 -24 -26 -1 -16 -14 -27 -28 -24 -17 3 -22 -6 -15
-25 6 -16 1 -36 -11 -43 -13 -9 -17 -5 -8 9 9 14 2 23 -17 23 -42 0 -39 33 4
58 19 12 27 21 16 21 -10 1 -39 -18 -63 -41 -29 -27 -55 -36 -72 -26 -14 9
-39 17 -56 17 -16 1 -28 12 -25 25 3 15 -8 20 -28 12 -27 -10 -28 -6 -9 31 13
24 17 43 9 43 -8 0 3 14 24 30 23 18 28 28 11 25 -18 -3 -30 14 -32 47 -2 29
-9 67 -16 85 -8 19 -3 33 12 34 13 0 8 12 -12 28 -20 15 -28 30 -17 34 11 4 9
16 -5 29 -17 16 -23 -5 -23 -86 0 -81 6 -104 26 -97 18 7 22 2 12 -14 -9 -14
-18 -38 -20 -54 -3 -17 -21 -42 -41 -57 -34 -26 -34 -27 2 -21 21 4 42 -6 48
-21 6 -19 1 -22 -18 -11 -23 13 -23 11 -4 -13 13 -17 19 -51 12 -77 -10 -37
-6 -44 16 -30 22 13 23 11 5 -12 -13 -16 -28 -58 -33 -93 -6 -35 -17 -74 -25
-88 -10 -15 -7 -19 8 -10 34 21 28 -9 -11 -52 -25 -28 -26 -35 -5 -27 20 8 30
-3 32 -34 2 -25 4 -63 6 -85 5 -53 -7 -105 -28 -124 -10 -9 -11 -5 -4 8 8 13
0 31 -18 41 -36 21 -59 311 -45 580 3 58 13 105 22 105 8 0 7 16 -4 36 -11 21
-12 48 -2 64 10 16 10 41 1 57 -9 16 -10 53 -2 81 9 29 12 72 8 97 -6 43 15
55 84 47 12 -1 37 29 55 68 18 38 38 70 44 70 6 0 1 -19 -11 -42z m784 -131
c35 -43 36 -376 1 -517 -28 -114 -41 -449 -19 -482 10 -17 51 -13 145 13 71
20 130 30 130 23 0 -25 -107 -64 -174 -64 -80 0 -81 -12 -13 -146 79 -154 109
-297 69 -327 -27 -20 -28 -34 -9 -86 13 -33 16 -57 7 -51 -9 6 -27 44 -39 85
-13 41 -60 152 -105 246 l-83 171 -72 -36 c-39 -20 -128 -41 -196 -49 -202
-21 -123 -51 93 -36 l195 14 53 -107 c48 -97 50 -111 23 -152 -16 -25 -29 -52
-29 -60 0 -9 9 -2 20 14 11 17 20 20 20 7 0 -28 -50 -71 -65 -55 -7 7 -7 25
-1 40 6 17 -3 28 -22 28 -18 0 -32 10 -32 21 0 12 -9 16 -20 9 -12 -7 -20 -6
-18 4 15 85 -1 103 -64 72 -42 -21 -92 -27 -155 -20 l-93 11 70 -31 c68 -30
69 -32 25 -52 -42 -19 -64 -57 -30 -52 134 22 365 -256 365 -437 0 -207 -197
-350 -367 -266 l-83 42 68 -60 c38 -33 76 -55 85 -49 9 6 17 1 17 -11 0 -11
27 -21 60 -21 33 0 60 9 60 19 0 11 19 30 42 42 40 21 41 19 30 -44 -10 -53
-4 -46 29 33 23 55 44 113 47 129 5 27 133 146 145 135 3 -3 -21 -88 -53 -188
-33 -101 -65 -220 -72 -264 -15 -94 -39 -96 -219 -11 -159 76 -421 371 -280
317 24 -10 24 4 1 95 -54 210 -117 742 -92 781 12 19 22 63 22 98 0 34 17 86
37 115 39 54 129 288 162 420 10 40 50 163 87 273 38 110 75 247 83 304 16
115 55 147 114 93 46 -42 51 -216 7 -300 -16 -31 -25 -72 -19 -90 6 -19 1 -40
-11 -47 -11 -7 -15 -21 -9 -32 6 -10 -2 -32 -19 -49 -17 -17 -36 -64 -42 -105
-33 -214 -131 -390 -250 -449 -113 -56 -25 -40 190 35 110 38 203 80 208 95 6
19 0 18 -25 -2 -21 -18 -33 -20 -33 -5 0 12 -11 20 -25 17 -14 -3 -22 7 -19
22 4 18 -6 24 -25 16 -19 -7 -31 -1 -31 18 0 16 8 29 18 29 10 0 14 17 9 37
-6 20 2 50 16 65 15 15 27 51 27 78 0 28 25 148 57 269 56 217 58 326 9 385
-20 25 -6 66 23 66 9 0 28 -15 44 -33z m414 -94 c4 -21 -3 -47 -14 -58 -29
-29 -83 17 -83 69 0 51 87 42 97 -11z m-1809 -71 c19 -21 79 -57 132 -80 54
-23 105 -53 113 -67 31 -49 26 -1018 -5 -1092 -25 -61 -25 -73 1 -102 86 -95
5 -360 -105 -345 -60 9 -144 -46 -144 -94 0 -21 -15 -43 -32 -50 -26 -10 -31
-3 -24 34 5 25 -2 56 -16 69 -22 21 -24 414 -7 1185 1 50 -2 144 -8 210 -11
141 -17 286 -15 335 3 47 67 45 110 -3z m3520 -157 c-26 -84 -38 -103 -43 -69
-9 49 58 245 70 208 5 -13 -8 -75 -27 -139z m-1228 -19 c0 -35 -9 -69 -20 -76
-12 -7 -20 12 -20 44 0 31 -9 88 -20 126 l-19 70 39 -50 c22 -27 39 -79 40
-114z m-620 54 c10 0 24 10 32 23 9 16 5 18 -14 7 -23 -13 -23 -11 -3 11 21
22 30 20 56 -12 18 -21 26 -28 19 -14 -19 39 0 30 42 -20 21 -24 25 -34 8 -22
-23 18 -45 17 -89 -1 -50 -20 -54 -27 -24 -38 22 -9 30 -6 22 8 -9 13 4 19 34
15 33 -5 45 -18 41 -44 -5 -26 1 -32 20 -22 14 9 8 -4 -13 -29 -29 -32 -32
-43 -11 -38 68 14 -18 -314 -108 -412 -77 -85 -163 -110 -178 -52 -6 25 -2 35
11 27 14 -9 17 3 9 34 -7 26 -3 59 9 73 14 17 15 26 2 26 -12 0 -26 14 -33 31
-7 20 -4 26 12 17 15 -10 19 -4 11 16 -7 17 -2 41 10 53 15 15 14 30 -5 53
-21 26 -21 29 2 20 20 -8 29 10 33 65 2 41 8 107 13 145 5 39 9 84 11 100 1
27 4 27 21 0 16 -25 20 -23 22 10 2 34 4 35 12 5 5 -19 17 -35 26 -35z m760
-149 c0 -15 59 -74 130 -131 118 -94 155 -114 222 -118 12 -1 31 -23 43 -49
53 -117 342 46 490 276 l39 61 -12 -98 c-7 -54 -12 -113 -12 -132 0 -22 -46
-59 -125 -101 -150 -79 -147 -74 -162 -219 -12 -116 -65 -280 -91 -280 -32 0
-88 135 -111 267 -20 119 -32 147 -72 167 -27 13 -119 57 -204 97 -122 58
-155 83 -155 116 0 24 -6 78 -13 121 -10 57 -7 74 10 64 13 -8 23 -27 23 -41z
m-1700 -145 c0 9 24 -6 52 -33 45 -41 51 -60 42 -126 -7 -42 -18 -126 -25
-187 -8 -60 -22 -120 -31 -132 -19 -24 -147 -25 -171 -2 -22 22 -23 94 -1 94
10 0 14 18 8 40 -6 22 -2 45 8 51 11 7 10 27 -3 50 -12 23 -13 39 -2 39 11 0
12 29 2 72 -19 85 66 204 103 146 9 -15 18 -21 18 -12z m2749 -235 c14 -58 13
-59 -24 -25 -27 24 -35 52 -29 98 11 70 21 55 53 -73z m-1479 2 c36 -27 36
-31 -6 -129 -24 -56 -44 -115 -44 -131 0 -16 -31 -95 -70 -176 -38 -80 -70
-160 -70 -176 0 -177 -180 -496 -361 -641 l-72 -58 9 59 c5 33 16 59 25 59 9
0 15 84 13 187 -3 157 -9 186 -34 176 -26 -9 -26 -6 -3 23 25 31 31 31 78 -6
116 -91 188 -36 138 104 -64 182 -46 318 27 201 17 -28 19 -22 9 29 -19 101
99 242 159 191 40 -35 40 -35 5 21 -78 124 86 347 197 267z m458 15 c18 -7 27
-20 21 -30 -6 -10 2 -13 17 -7 16 6 44 -3 61 -21 18 -18 33 -27 33 -20 0 63
132 -165 149 -256 7 -41 21 -70 32 -64 10 7 13 -2 7 -19 -14 -35 -18 -33 -172
77 -119 85 -162 149 -185 277 -14 79 -12 82 37 63z m926 -103 c-7 -63 -18
-137 -26 -165 -14 -50 -14 -50 29 -12 24 21 44 57 44 80 2 72 43 -44 49 -138
3 -44 16 -118 30 -165 31 -107 -12 -152 -233 -242 l-144 -59 -13 133 c-7 73
-17 147 -22 164 -6 22 30 50 122 96 71 36 130 68 130 72 0 64 -29 64 -119 0
-124 -89 -122 -91 -80 60 39 141 82 210 159 257 79 48 85 41 74 -81z m-701
-342 c121 -46 122 -47 134 -137 32 -228 17 -240 -177 -144 -146 71 -162 95
-194 284 l-30 173 73 -65 c39 -36 127 -86 194 -111z m-1965 65 c28 -11 27 -19
-8 -68 -39 -55 -121 -231 -119 -257 1 -7 32 48 70 122 75 145 111 183 57 60
-92 -210 -153 -429 -126 -449 22 -16 21 -18 -6 -9 -38 12 -67 -92 -89 -328
-14 -156 -15 -154 93 -99 101 51 103 51 69 -15 -16 -30 -35 -54 -44 -52 -8 2
-25 -5 -38 -16 -15 -12 -28 -11 -37 4 -10 15 -31 7 -64 -24 -98 -92 -136 -165
-148 -287 l-12 -120 -3 144 c-2 79 6 149 16 155 11 7 14 28 8 47 -8 24 -5 27
8 9 24 -34 128 78 106 114 -11 18 -19 15 -28 -9 -22 -58 -51 -13 -33 51 10 33
19 65 20 72 2 7 -9 20 -23 29 -16 10 -18 18 -5 18 12 0 20 23 17 50 -3 28 3
50 13 50 34 0 18 40 -17 42 -19 0 -24 6 -11 11 13 5 19 22 13 38 -6 16 -21 23
-34 15 -22 -13 12 37 59 88 13 13 21 84 20 165 -2 85 5 141 17 141 12 0 8 9
-9 20 -16 11 -22 20 -13 20 10 0 7 13 -7 30 -13 16 -33 25 -42 19 -10 -6 -18
3 -18 20 0 17 14 31 30 31 17 0 28 -11 25 -25 -3 -14 7 -23 21 -20 15 4 21 -3
14 -15 -7 -11 -3 -20 9 -20 11 0 22 -25 22 -55 2 -54 2 -54 20 -8 11 26 14 55
8 65 -6 10 -3 18 7 18 11 0 23 46 29 102 12 125 63 164 163 126z m2290 -318
c29 -239 28 -270 -8 -270 -16 0 -30 14 -30 30 0 35 -33 40 -45 6 -13 -39 -55
3 -55 56 0 43 5 47 40 28 36 -20 40 -15 40 49 0 39 -7 71 -16 71 -16 0 -12
105 8 198 18 84 44 18 66 -168z m79 101 c3 -56 -4 -91 -17 -91 -12 0 -17 8
-11 18 6 10 -3 23 -19 29 -42 16 -37 54 5 40 29 -10 28 -7 -4 18 -33 26 -35
36 -13 63 38 46 54 26 59 -77z m-227 69 c-7 -11 -1 -20 14 -20 15 0 28 -26 30
-61 3 -43 -3 -56 -20 -46 -18 11 -19 7 -3 -14 27 -36 26 -100 -1 -94 -11 3
-20 48 -19 100 0 52 -6 95 -15 95 -9 0 -16 14 -16 30 0 17 10 30 21 30 12 0
16 -9 9 -20z m668 -172 c-36 -39 -45 -68 -40 -139 7 -124 -31 -112 -49 15 -13
100 -11 106 53 163 78 70 108 37 36 -39z m-943 -28 c65 -40 103 -240 45 -240
-11 0 -20 32 -20 72 0 54 -15 86 -60 128 -94 88 -76 108 35 40z m976 -5 c-4
-25 -9 -70 -10 -101 0 -32 -10 -51 -21 -44 -28 17 -25 137 4 166 33 33 37 31
27 -21z m-1965 -42 c10 -31 13 -61 6 -68 -18 -17 -71 58 -71 102 -1 53 43 30
65 -34z m1510 13 c3 -23 -7 -46 -22 -52 -20 -8 -28 5 -26 48 2 65 39 68 48 4z
m271 5 c-6 -17 3 -44 21 -62 69 -69 42 -114 -66 -106 -54 4 -95 1 -90 -5 4 -7
-16 -13 -43 -13 -99 0 -57 96 70 160 127 64 123 63 108 26z m-2061 -26 c34
-39 -23 -154 -59 -118 -9 9 -1 25 18 35 47 27 47 66 -1 40 -29 -16 -36 -10
-40 30 -4 57 36 64 82 13z m1033 -110 c2 -37 -36 -10 -47 33 -6 27 -17 65 -23
85 -6 20 7 6 29 -33 22 -38 41 -77 41 -85z m497 -10 c6 -38 -3 -45 -53 -45
-102 0 -123 17 -123 104 l0 79 85 -47 c54 -30 87 -63 91 -91z m-276 55 c0 -49
-39 -93 -40 -45 0 8 -6 35 -13 60 -8 33 -3 45 21 45 22 0 32 -18 32 -60z m548
-32 c20 -52 14 -65 -28 -54 -22 6 -40 27 -40 48 0 46 51 51 68 6z m-2466 -293
c-43 -79 -120 -164 -135 -149 -8 8 2 26 21 40 31 23 46 61 50 129 1 14 13 23
27 20 14 -3 22 9 19 25 -6 24 -2 25 18 5 20 -19 20 -33 0 -70z m-356 -14 c9 0
11 -9 5 -19 -6 -10 -13 -54 -14 -97 l-3 -79 -192 -91 c-218 -103 -222 -103
-222 11 0 107 36 239 61 223 10 -6 19 -1 19 11 0 15 21 19 61 10 37 -8 72 -4
90 11 16 13 29 18 29 10 0 -7 16 -4 35 7 19 11 53 16 75 12 22 -4 47 -8 56 -9z
m512 -286 c1 -41 11 -75 21 -75 11 0 15 -12 9 -27 -5 -15 4 -38 21 -52 17 -14
26 -33 20 -42 -6 -10 17 -32 51 -49 34 -17 56 -40 49 -51 -6 -10 6 -19 28 -19
61 0 137 -48 128 -80 -5 -20 -2 -22 8 -8 20 27 167 57 167 34 0 -9 -18 -64
-40 -122 l-40 -106 40 22 c22 12 40 34 40 49 0 16 11 40 25 55 52 57 77 116
50 117 -14 1 11 15 54 31 83 30 191 120 190 157 0 11 -9 5 -21 -14 -11 -20
-30 -30 -42 -22 -12 7 -17 4 -10 -7 7 -10 0 -19 -16 -19 -16 0 -22 9 -15 21 7
12 15 56 17 98 5 98 26 182 42 167 7 -7 27 -1 44 12 27 21 29 21 8 -6 -19 -24
-18 -48 4 -113 35 -100 25 -137 -96 -378 -194 -387 -641 -335 -834 97 l-38 84
-49 -107 c-59 -127 -33 -196 54 -143 24 14 37 20 29 12 -7 -9 11 -38 40 -65
46 -43 48 -49 14 -42 -22 5 -38 18 -36 29 2 11 -9 20 -25 20 -16 0 -29 -7 -29
-16 0 -9 9 -17 20 -17 11 0 18 -11 15 -25 -3 -14 10 -22 30 -19 19 3 56 -9 82
-26 27 -17 56 -30 66 -28 45 8 51 -5 16 -31 -38 -29 -37 -30 11 -29 28 0 99
-4 160 -9 71 -6 115 -2 125 14 25 39 16 -29 -15 -117 -19 -54 -22 -86 -8 -100
14 -14 16 -9 7 14 -10 27 -4 33 28 27 29 -6 37 0 30 20 -6 16 -2 29 9 29 11 0
15 20 9 45 l-11 45 48 -40 c30 -25 38 -28 22 -7 -22 28 -17 40 38 78 59 42 48
16 -139 -351 -215 -420 -220 -430 -173 -383 17 17 30 38 30 48 0 20 119 242
120 224 0 -15 -58 -220 -74 -259 -7 -16 -10 -42 -8 -57 3 -15 -5 -21 -17 -13
-15 9 -19 -4 -13 -39 6 -31 2 -47 -10 -40 -11 7 -16 -9 -10 -39 5 -29 1 -52
-9 -52 -18 0 -27 29 -21 65 4 25 -10 17 -50 -30 -23 -27 -26 -35 -6 -20 27 21
35 17 54 -25 30 -64 11 -121 -28 -88 -16 13 -29 15 -30 5 -2 -9 -4 -30 -5 -47
-2 -16 -16 -30 -33 -30 -16 0 -36 -14 -43 -30 -26 -65 -115 -92 -178 -56 -41
24 -62 27 -72 11 -9 -15 -18 -11 -25 10 -9 26 -30 12 -92 -63 -44 -54 -87 -93
-95 -88 -8 4 -15 -1 -15 -13 0 -32 40 -25 53 10 8 21 19 24 36 10 14 -12 29
-16 35 -11 5 6 9 -3 9 -19 0 -33 -47 -57 -75 -40 -41 25 -60 -15 -29 -62 31
-47 30 -48 -19 -29 -56 21 -116 6 -97 -25 8 -13 1 -14 -23 0 -20 11 -39 44
-42 73 -3 29 2 48 11 42 10 -5 38 -2 64 8 42 16 40 18 -21 17 -68 -1 -122 43
-122 100 0 15 -9 22 -20 15 -11 -7 -15 0 -9 15 6 16 -7 68 -28 117 -70 164
-72 438 -4 422 17 -4 22 8 15 35 -6 26 -2 36 11 28 13 -8 17 2 11 26 -9 34 -1
40 46 37 31 -2 51 5 45 15 -6 10 -24 13 -39 7 -48 -18 -31 5 27 37 47 25 49
30 15 31 -37 1 -37 3 -5 22 19 11 44 15 54 9 10 -7 24 -3 31 9 7 11 -2 20 -19
20 -46 0 -38 55 18 115 27 29 44 60 39 68 -6 9 5 11 23 4 31 -12 31 -14 1 -31
-18 -10 -27 -28 -19 -40 8 -13 4 -16 -10 -8 -13 8 -23 4 -23 -8 0 -13 10 -20
22 -16 11 4 21 16 21 27 0 10 12 26 28 35 35 19 15 74 -28 74 -26 1 -27 4 -6
18 14 9 23 20 20 24 -26 31 54 180 92 170 37 -9 42 -2 40 58 -2 57 3 65 25 46
23 -18 23 -26 2 -39 -15 -9 -17 -17 -4 -17 40 0 48 27 20 70 -27 42 -26 43 25
37 29 -4 42 -2 28 5 -14 6 -25 24 -25 40 0 15 -13 28 -29 28 -41 0 -96 -112
-81 -166 8 -27 6 -35 -5 -19 -11 16 -60 -51 -151 -210 -74 -129 -163 -283
-198 -342 -34 -59 -73 -163 -87 -230 -20 -102 -25 -111 -27 -51 -1 39 12 116
29 170 18 54 35 119 39 146 4 26 18 57 31 70 19 16 21 16 11 -3 -8 -14 -10
-25 -5 -25 34 0 350 595 443 836 38 96 62 137 73 120 11 -18 16 -11 17 21 0
26 24 125 54 220 57 184 77 178 84 -22z m-189 -57 c-17 -28 -131 -83 -144 -69
-7 6 -2 11 10 11 12 0 28 19 36 43 9 29 18 35 28 18 11 -18 19 -15 28 9 7 18
22 27 33 20 11 -7 15 -21 9 -32z m-95 -321 c-19 -11 -50 -55 -67 -98 -19 -49
-44 -78 -64 -77 -21 1 -24 5 -8 11 14 6 21 17 16 26 -13 20 130 187 146 170 7
-6 -3 -21 -23 -32z m-106 -209 c41 -16 21 -48 -30 -48 -26 0 -35 -9 -26 -23 8
-14 5 -18 -7 -10 -23 14 -10 93 16 93 9 0 30 -5 47 -12z m4069 -83 c-2 -41 -8
-84 -14 -94 -6 -11 -8 -56 -5 -100 3 -45 -1 -74 -9 -66 -9 8 -27 5 -40 -6 -42
-35 -56 51 -18 109 18 28 27 60 20 71 -8 12 -3 21 10 21 13 0 18 13 12 29 -6
17 -3 35 7 41 10 6 13 24 7 41 -6 16 -1 29 11 29 14 0 22 -30 19 -75z m-3787
-1305 c22 -9 28 -18 13 -19 -18 0 -24 -16 -17 -41 6 -23 0 -40 -13 -40 -13 0
-43 -6 -66 -12 -38 -10 -43 -5 -38 42 9 78 48 101 121 70z"/>
<path d="M4061 6041 c-2 -53 155 -351 229 -431 l73 -80 -73 99 c-62 86 -116
189 -205 391 -12 28 -23 37 -24 21z"/>
<path d="M2821 6563 c-3 -146 210 -679 253 -635 6 5 -7 35 -29 66 -66 94 -93
153 -62 133 168 -106 217 -158 246 -256 27 -95 91 -430 91 -479 0 -36 -68 85
-149 268 -100 223 -120 241 -60 52 33 -102 48 -195 46 -278 -2 -110 -4 -116
-18 -54 -11 46 -13 19 -6 -80 5 -82 14 -168 19 -190 6 -24 -4 -17 -24 19 -19
33 -69 104 -112 159 -43 54 -96 134 -118 176 -21 42 -43 76 -49 76 -11 0 88
-195 152 -300 40 -65 40 -66 2 -20 -22 28 -52 50 -67 51 -14 0 -24 11 -21 24
3 13 -23 67 -56 120 -59 93 -160 374 -158 441 1 19 17 -15 37 -76 33 -103 99
-246 101 -218 1 7 -18 56 -41 108 -23 52 -59 176 -79 275 -48 233 -62 243 -49
34 17 -288 154 -816 187 -719 4 14 25 6 55 -21 26 -25 43 -51 38 -60 -11 -17
165 -166 204 -172 18 -2 26 23 26 84 0 90 68 171 118 140 51 -31 132 13 88 48
-30 25 -44 68 -55 172 l-15 139 120 -110 c144 -133 144 -132 44 -148 -44 -7
-80 -21 -80 -32 0 -25 5 -25 69 0 107 40 149 39 183 -6 32 -44 32 -44 23 11
-10 60 52 80 101 31 67 -67 30 -90 -161 -101 -210 -13 -346 -53 -342 -102 1
-18 -6 -27 -17 -21 -10 7 -13 27 -6 45 10 26 7 28 -12 9 -18 -18 -19 -31 -1
-52 12 -15 16 -35 8 -43 -8 -9 15 -1 52 18 46 23 90 30 135 22 42 -8 68 -5 68
8 0 12 23 21 50 21 31 0 50 11 50 30 0 20 20 30 60 30 66 0 57 -77 -16 -133
-45 -34 -122 -37 -88 -3 41 41 27 65 -15 26 -29 -25 -57 -32 -101 -23 -36 7
-57 5 -51 -6 7 -10 -9 -22 -34 -26 -25 -4 32 -9 125 -11 169 -4 240 23 240 93
0 35 75 87 85 59 5 -14 18 19 27 74 23 131 17 563 -10 640 -15 46 -18 7 -12
-160 l9 -220 -36 143 c-41 160 -73 246 -130 343 -47 81 -68 70 -24 -13 41 -80
41 -81 -27 -73 -258 33 -642 346 -744 608 -26 66 -36 79 -37 45z m600 -675
l93 -31 51 -173 c71 -238 86 -324 55 -324 -13 0 -19 13 -14 28 6 15 -12 49
-39 75 -114 106 -341 494 -275 469 20 -8 78 -27 129 -44z m286 -93 c7 -25 13
-83 13 -129 0 -55 11 -90 32 -102 21 -12 29 -39 25 -85 l-7 -68 -37 58 c-33
49 -33 55 -5 45 45 -18 41 -7 -36 101 -37 52 -82 124 -100 160 l-33 65 68 0
c54 0 71 -9 80 -45z m-24 -328 c0 -9 14 -33 32 -52 29 -32 28 -35 -10 -35 -24
0 -45 17 -51 40 -6 22 -2 40 9 40 11 0 13 11 5 25 -8 14 -8 19 0 12 9 -8 15
-21 15 -30z m-429 -135 l42 -47 -48 -22 c-46 -21 -48 -19 -48 47 0 83 1 84 54
22z"/>
<path d="M2591 6437 c-18 -59 -37 -188 -44 -287 -6 -99 -34 -259 -61 -356 -27
-97 -44 -189 -38 -205 6 -16 2 -29 -10 -29 -11 0 -18 -11 -15 -25 3 -14 -3
-61 -12 -105 -23 -109 -46 -36 -49 155 -2 127 -4 134 -47 130 -91 -10 -127
-356 -59 -570 46 -143 42 -157 -15 -50 -21 41 -40 70 -40 64 -2 -30 65 -200
75 -190 6 6 34 -9 62 -34 28 -25 41 -31 29 -15 -12 17 -36 75 -54 130 l-32
100 74 -80 c79 -85 241 -117 350 -69 39 17 38 18 -13 8 -52 -10 -56 -8 -33 20
31 37 15 40 -38 7 -32 -20 -46 -18 -80 13 -44 40 -58 17 -16 -28 21 -21 14
-24 -35 -12 -122 29 -194 151 -88 151 36 0 58 -10 58 -27 0 -27 108 -65 150
-53 11 4 36 7 55 7 19 1 35 11 35 22 1 14 6 14 15 1 45 -60 101 -69 72 -11
-37 76 -63 84 -292 96 l-195 10 0 68 c0 93 66 94 95 2 21 -64 21 -64 23 -10 2
64 8 65 122 25 99 -35 120 -37 120 -11 0 10 -39 24 -87 32 -143 21 -159 102
-49 247 20 26 36 60 36 75 0 61 36 21 61 -66 14 -51 57 -139 94 -195 67 -99
68 -102 29 -133 -38 -30 -37 -32 24 -65 62 -35 62 -35 17 4 -31 26 -37 41 -20
47 29 10 106 -66 124 -121 6 -21 25 -37 41 -37 37 0 37 12 -1 62 -35 46 -38
79 -6 59 15 -9 18 -5 9 9 -8 13 -23 18 -33 12 -11 -6 -19 -1 -19 11 0 12 -8
17 -18 11 -21 -13 -104 119 -108 171 -1 20 -8 31 -16 27 -7 -5 -20 32 -27 81
-7 49 -27 103 -44 120 -16 16 -26 30 -21 30 5 0 -8 61 -29 135 -45 162 -49
443 -8 615 35 151 24 168 -18 27z m-289 -914 c24 37 -2 -104 -26 -143 -13 -22
-16 -15 -10 24 4 29 1 65 -8 79 -8 14 -10 34 -3 45 7 12 16 10 21 -6 7 -22 12
-21 26 1z"/>
<path d="M3503 6430 c-2 -51 111 -235 124 -202 7 19 5 29 -5 23 -10 -6 -23 3
-30 20 -9 25 -2 29 33 19 25 -7 36 -5 24 4 -11 9 -31 39 -45 66 -14 28 -21 34
-15 14 6 -21 2 -31 -9 -24 -11 7 -20 26 -20 42 0 17 -8 25 -18 19 -10 -6 -23
0 -29 14 -5 14 -10 16 -10 5z"/>
<path d="M1291 6381 c-21 -34 7 -61 65 -61 43 1 48 5 24 20 -23 15 -14 19 34
15 35 -3 67 3 70 13 9 27 -177 39 -193 13z"/>
<path d="M3420 6339 c10 -18 41 -48 68 -66 l50 -32 -44 66 c-46 69 -108 96
-74 32z"/>
<path d="M1647 6345 c5 -9 -26 -12 -69 -8 -82 8 -104 -23 -54 -73 36 -36 156
-31 156 6 0 17 9 30 21 30 13 0 14 -12 1 -36 -25 -46 28 -114 103 -132 65 -15
83 59 20 83 -63 23 -90 61 -50 70 31 8 31 10 -5 23 -22 8 -56 23 -75 33 -42
23 -61 24 -48 4z"/>
<path d="M1009 6299 c-16 -18 -29 -39 -29 -47 0 -9 -18 -39 -40 -67 -58 -73
-52 -109 15 -93 101 24 166 147 80 150 -30 1 -35 5 -15 12 17 6 46 25 65 42
22 19 35 22 35 7 0 -13 -9 -23 -19 -23 -11 0 -15 -13 -8 -30 6 -16 33 -30 59
-30 33 0 43 9 35 30 -7 19 1 31 21 33 65 5 72 7 67 27 -9 35 -232 26 -266 -11z"/>
<path d="M1284 6276 c-65 -65 -9 -136 107 -136 92 0 143 60 106 126 -23 40
-176 47 -213 10z"/>
<path d="M1934 6247 c7 -19 0 -42 -18 -55 -70 -52 -26 -179 69 -198 44 -8 44
-9 2 -11 -87 -6 -73 -223 14 -223 21 0 46 -16 58 -35 18 -32 22 -30 34 13 13
46 14 47 43 10 24 -32 27 -32 18 -4 -7 19 -4 40 7 47 26 15 24 103 -2 119 -13
9 -16 -5 -8 -38 11 -45 7 -52 -32 -52 -25 0 -40 6 -32 14 7 7 -6 34 -30 59
-24 26 -38 53 -30 60 7 8 13 3 13 -10 0 -12 10 -23 22 -23 13 0 18 18 12 41
-9 33 -3 38 28 28 47 -15 52 34 7 80 -40 39 -45 39 -42 -3 4 -43 -63 -48 -112
-8 -40 32 -49 130 -11 117 14 -4 31 -30 39 -56 10 -33 12 -23 7 31 -4 44 -8
91 -9 105 0 14 -14 25 -30 25 -19 0 -25 -12 -17 -33z"/>
<path d="M1165 6204 c-85 -8 -141 -103 -107 -178 30 -66 134 -58 179 14 31 47
30 48 -2 23 -48 -38 -99 -14 -91 42 8 57 71 70 107 22 34 -45 37 -12 3 43 -18
30 -41 38 -89 34z"/>
<path d="M1517 6205 c-22 -135 6 -185 105 -185 96 0 138 76 83 150 -34 47
-181 74 -188 35z m151 -77 c17 -45 18 -43 -50 -59 -86 -18 -118 30 -42 64 73
32 78 32 92 -5z"/>
<path d="M2404 6187 c-32 -64 -129 -369 -119 -379 20 -20 76 19 83 59 5 24 22
111 38 193 31 156 31 189 -2 127z"/>
<path d="M793 6071 c-51 -48 -72 -85 -34 -62 10 6 24 3 30 -7 7 -11 -4 -29
-24 -40 -32 -19 -32 -21 5 -21 40 -1 110 95 110 151 0 41 -27 35 -87 -21z"/>
<path d="M1274 6050 c-52 -108 -6 -190 107 -190 71 0 83 7 113 70 39 81 8 177
-50 155 -17 -7 -25 -3 -19 8 7 10 -17 21 -52 23 -57 4 -70 -5 -99 -66z m124
-8 c38 -25 12 -82 -37 -82 -26 0 -41 13 -41 37 0 60 28 76 78 45z"/>
<path d="M1730 6038 c-9 -37 -5 -71 8 -84 21 -21 32 3 24 51 -1 8 8 15 19 15
12 0 16 9 9 20 -17 28 17 25 46 -4 29 -29 32 -83 4 -66 -12 7 -15 23 -9 36 7
13 -6 2 -29 -26 -53 -64 -44 -88 33 -96 79 -8 108 82 54 165 -51 77 -141 71
-159 -11z"/>
<path d="M890 6040 c-7 -11 -3 -20 9 -20 11 0 21 -9 21 -19 0 -11 -13 -15 -28
-9 -36 14 -58 -52 -40 -121 9 -36 23 -50 42 -42 16 6 38 11 48 11 10 0 18 18
18 40 0 25 19 48 50 60 45 17 47 24 27 69 -24 53 -121 73 -147 31z"/>
<path d="M1515 5913 c-45 -96 10 -193 111 -193 97 0 153 112 100 201 -53 90
-166 85 -211 -8z m155 -33 c0 -31 -13 -52 -35 -56 -40 -8 -65 40 -47 87 19 50
82 26 82 -31z"/>
<path d="M1068 5925 c-6 -19 -20 -52 -31 -72 -38 -71 12 -143 102 -144 105 -1
161 95 111 192 -37 71 -162 87 -182 24z"/>
<path d="M738 5905 c-15 -132 -5 -225 25 -225 43 0 83 117 66 188 -12 47 -86
78 -91 37z"/>
<path d="M1772 5828 c-20 -51 -14 -58 15 -19 15 21 37 31 50 23 40 -25 25 -92
-30 -143 -63 -59 -43 -96 45 -86 121 14 109 257 -12 257 -32 0 -61 -13 -68
-32z"/>
<path d="M1379 5826 c-178 -19 -171 -275 7 -262 118 9 170 107 110 208 -22 37
-41 66 -43 65 -2 -2 -35 -7 -74 -11z m78 -80 c30 -53 -14 -126 -75 -126 -73 0
-109 61 -69 118 35 50 118 55 144 8z"/>
<path d="M646 5765 c-7 -19 -17 -43 -22 -53 -6 -10 1 -11 14 -3 17 10 23 3 18
-20 -3 -19 7 -39 22 -45 21 -7 25 2 13 38 -8 27 -14 64 -14 83 0 19 -4 35 -9
35 -5 0 -15 -16 -22 -35z"/>
<path d="M842 5736 c-32 -90 4 -196 66 -196 26 0 45 12 45 29 0 16 -9 27 -21
25 -12 -2 -25 21 -28 51 -5 43 0 52 25 43 37 -14 41 14 7 48 -13 13 -18 24
-11 24 39 0 76 -69 64 -122 -15 -71 16 -76 47 -8 35 76 -25 170 -109 170 -53
0 -67 -10 -85 -64z"/>
<path d="M1963 5705 c-56 -105 -14 -248 53 -181 19 19 24 16 24 -14 0 -36 1
-36 29 1 33 44 41 109 13 109 -11 0 -25 27 -32 60 -15 66 -58 79 -87 25z"/>
<path d="M1527 5624 l-44 -76 41 -64 c59 -95 170 -83 221 24 77 162 -130 271
-218 116z m144 41 c29 -20 55 -91 28 -74 -12 7 -38 -2 -57 -20 -58 -51 -103
-22 -75 50 21 57 61 74 104 44z"/>
<path d="M1129 5666 c-88 -11 -128 -118 -76 -206 91 -153 283 -7 198 151 -21
38 -43 68 -49 66 -7 -2 -40 -7 -73 -11z m107 -178 c-24 -52 -92 -64 -132 -24
-33 33 -32 87 1 62 43 -32 105 -20 102 20 -2 27 3 30 24 13 21 -17 22 -33 5
-71z"/>
<path d="M713 5598 c-19 -93 -17 -110 11 -82 46 46 60 24 46 -76 -12 -87 -10
-99 18 -88 24 9 32 0 32 -40 0 -29 9 -52 19 -52 11 0 14 29 7 65 -6 36 -10 97
-9 135 5 169 -96 280 -124 138z"/>
<path d="M1801 5543 c-36 -30 -79 -143 -55 -143 6 0 30 32 54 70 24 39 51 70
62 70 21 0 15 -57 -11 -98 -12 -19 -10 -24 6 -14 13 8 23 6 23 -5 0 -11 -27
-26 -60 -33 -33 -7 -55 -22 -49 -32 17 -27 101 -22 126 9 34 40 52 153 26 153
-13 0 -21 10 -18 22 8 37 -62 37 -104 1z"/>
<path d="M1369 5526 c-101 -13 -139 -159 -58 -226 48 -41 164 -7 198 58 29 55
-18 188 -64 179 -8 -2 -42 -7 -76 -11z m67 -91 c8 -42 -50 -69 -80 -39 -30 30
-3 88 39 80 19 -3 38 -22 41 -41z"/>
<path d="M855 5470 c-5 -28 -2 -56 8 -62 9 -6 17 -1 17 11 0 11 8 21 19 21 10
0 7 -23 -7 -50 -24 -46 -22 -150 3 -150 5 0 5 23 0 52 -7 36 -4 45 11 30 87
-87 183 24 119 136 -47 83 -155 90 -170 12z"/>
<path d="M1942 5417 c-43 -124 -31 -146 48 -83 71 57 90 90 45 81 -14 -3 -22
10 -19 30 10 61 -51 38 -74 -28z"/>
<path d="M1541 5361 c-26 -48 2 -55 39 -11 20 24 32 25 54 7 22 -19 23 -27 2
-40 -19 -12 -20 -16 -2 -17 14 0 20 -13 13 -30 -16 -41 -100 -38 -125 5 -12
19 -21 24 -21 10 -1 -16 -32 -25 -90 -25 -49 0 -94 -9 -101 -20 -7 -12 19 -20
68 -20 82 0 115 -23 91 -62 -10 -16 -18 -16 -27 -1 -19 31 -162 43 -162 14 0
-79 201 -104 241 -30 16 31 16 49 -2 71 -14 16 -20 34 -13 40 6 6 20 -6 31
-27 42 -78 222 -1 222 95 0 27 -2 27 -19 0 -16 -23 -19 -19 -15 20 7 70 -149
88 -184 21z"/>
<path d="M1064 5331 c-23 -50 30 -151 80 -151 14 0 13 9 -2 27 -17 21 -15 34
7 52 38 32 77 7 65 -41 -14 -51 38 -50 65 1 16 28 12 53 -14 99 -47 82 -166
90 -201 13z"/>
<path d="M1761 5262 c-22 -32 -36 -72 -30 -88 16 -42 80 -20 120 41 24 35 25
46 6 36 -15 -8 -11 -1 8 15 48 39 44 54 -14 54 -31 0 -63 -21 -90 -58z"/>
<path d="M2057 5251 c-29 -37 -31 -151 -4 -151 49 0 86 79 62 134 l-25 61 -33
-44z"/>
<path d="M920 5242 c0 -48 52 -95 65 -58 7 18 22 13 50 -19 57 -64 77 -6 22
64 -48 62 -137 71 -137 13z"/>
<path d="M2669 5262 c-10 -10 -37 -22 -59 -28 -32 -7 -30 -10 11 -12 28 -1 69
11 90 27 31 24 33 30 8 30 -17 1 -40 -7 -50 -17z"/>
<path d="M1551 5141 c-41 -45 -27 -125 14 -84 12 12 43 23 67 23 50 0 98 48
79 79 -22 35 -123 23 -160 -18z"/>
<path d="M1109 5139 c-21 -34 52 -99 110 -99 78 0 109 38 68 84 -36 39 -156
50 -178 15z"/>
<path d="M1940 5110 c-26 -28 -50 -65 -52 -82 -7 -45 -28 -61 -28 -22 0 70
-59 7 -71 -75 -22 -147 -10 -161 76 -90 71 58 106 159 56 159 -12 0 -13 18 -3
45 10 25 32 44 50 42 19 -1 32 13 32 35 0 49 -4 48 -60 -12z"/>
<path d="M1410 5066 c-89 -11 -114 -23 -99 -47 8 -14 22 -13 42 4 24 19 33 19
46 -1 20 -33 111 -20 111 16 0 33 -18 38 -100 28z"/>
<path d="M3004 4825 c-52 -72 -56 -139 -13 -201 45 -64 89 -14 88 100 -3 146
-23 174 -75 101z"/>
<path d="M3386 4479 c-25 -10 -188 -20 -364 -23 -309 -6 -318 -7 -285 -43 52
-58 175 -113 247 -111 59 2 56 5 -34 28 -98 25 -99 25 -30 31 69 5 69 5 10 14
-137 19 -91 45 81 45 98 0 215 6 259 12 60 8 72 6 50 -10 -16 -12 -60 -22 -96
-22 -37 0 -62 -8 -56 -17 6 -10 36 -13 67 -8 87 16 36 -18 -70 -47 -77 -21
-84 -26 -36 -27 73 -1 209 63 271 129 54 57 49 73 -14 49z"/>
<path d="M2990 4220 c7 -11 38 -20 70 -20 32 0 63 9 70 20 7 12 -20 20 -70 20
-50 0 -77 -8 -70 -20z"/>
<path d="M980 4361 c0 -10 10 -25 22 -32 16 -10 15 -18 -2 -29 -14 -9 -19 -26
-11 -39 11 -17 22 -17 43 1 25 21 25 28 -2 57 -16 19 -24 40 -17 48 8 7 3 13
-10 13 -12 0 -23 -8 -23 -19z"/>
<path d="M253 3251 c-7 -18 5 -34 30 -42 48 -15 66 -1 50 40 -15 39 -65 40
-80 2z"/>
<path d="M702 3032 c-22 -72 -45 -179 -51 -237 -9 -81 -3 -67 27 65 21 94 49
196 61 228 12 32 18 62 13 67 -5 5 -28 -50 -50 -123z"/>
<path d="M615 2605 c12 -129 20 -139 23 -30 1 58 -5 105 -14 105 -9 0 -13 -34
-9 -75z"/>
<path d="M621 1582 c-26 -79 -18 -122 25 -122 16 1 15 6 -3 18 -18 11 -20 21
-6 30 12 7 16 28 9 46 -8 21 -5 28 9 19 12 -8 29 -3 37 10 9 14 6 18 -9 9 -13
-8 -23 -5 -23 7 0 11 10 21 21 21 12 0 16 9 9 20 -23 37 -44 20 -69 -58z"/>
<path d="M1270 1359 c-30 -66 -32 -85 -10 -105 20 -19 23 -19 12 1 -8 14 -3
25 12 25 19 1 18 6 -4 20 -22 14 -23 19 -4 20 15 0 21 9 14 20 -7 11 -5 20 5
20 9 0 18 18 20 40 4 58 -4 50 -45 -41z"/>
<path d="M1065 897 c-51 -114 -45 -219 8 -147 37 51 34 77 -8 62 -31 -11 -31
-9 -4 13 16 14 30 39 29 55 -1 17 11 42 25 56 28 30 33 64 10 64 -8 0 -35 -46
-60 -103z"/>
<path d="M5942 3745 c-1 -3525 1 -3745 40 -3745 10 0 18 1572 18 3700 0 3161
-4 3700 -28 3700 -24 0 -28 -533 -30 -3655z"/>
<path d="M5535 6658 c7 -29 2 -36 -23 -26 -17 7 -32 2 -32 -10 0 -12 -13 -22
-29 -22 -18 0 -25 -12 -18 -30 10 -27 -22 -41 -77 -33 -7 1 -10 -15 -6 -36 4
-21 -7 -50 -25 -65 -28 -22 -31 -21 -20 7 13 35 -44 42 -69 8 -18 -26 23 -74
49 -58 12 7 15 4 8 -8 -17 -27 -59 -21 -106 15 -20 16 -30 21 -22 11 18 -21
-63 -115 -86 -100 -8 5 -11 -9 -5 -31 6 -22 18 -35 26 -30 9 5 14 -30 13 -78
-1 -50 -11 -84 -23 -79 -12 4 -21 -37 -22 -103 -2 -60 4 -110 13 -110 8 0 11
-18 5 -40 -12 -46 -45 -51 -86 -15 -24 21 -24 20 -2 -9 14 -19 42 -40 63 -46
21 -7 32 -24 26 -40 -6 -16 3 -47 19 -70 26 -37 26 -57 2 -146 -17 -67 -20
-110 -7 -123 25 -25 25 -57 -1 -41 -11 7 -20 -7 -20 -30 0 -26 9 -37 22 -29
12 8 7 -10 -12 -39 -27 -41 -29 -52 -7 -53 15 -1 7 -10 -18 -20 -28 -11 -40
-28 -33 -47 17 -43 -10 -79 -40 -54 -18 15 -24 8 -24 -28 0 -39 5 -44 28 -25
23 19 27 16 20 -16 -5 -21 -21 -36 -36 -33 -21 5 -22 0 -2 -23 16 -20 17 -34
3 -42 -12 -8 -21 -24 -21 -37 0 -14 8 -12 20 6 15 24 19 24 20 3 0 -23 6 -23
30 -3 37 30 41 88 5 68 -19 -11 -20 -8 -2 12 13 13 22 35 19 47 -3 13 -2 16 3
9 4 -8 7 -21 5 -27 -1 -7 14 -26 34 -42 21 -18 27 -33 15 -39 -12 -5 -18 -36
-13 -68 5 -35 17 -54 29 -47 14 9 15 3 4 -15 -10 -15 -19 -55 -20 -89 0 -33
-8 -71 -16 -85 -9 -14 -5 -24 11 -24 19 -1 18 -6 -4 -20 -18 -11 -20 -20 -6
-20 19 0 23 -92 5 -115 -13 -16 -6 -205 7 -205 9 0 11 -9 4 -20 -7 -11 -1 -20
14 -20 19 -1 18 -6 -4 -20 -22 -14 -23 -19 -4 -20 19 0 21 -10 7 -34 -11 -19
-12 -53 -3 -77 9 -23 9 -54 0 -69 -9 -14 -12 -38 -7 -52 6 -14 0 -44 -12 -66
-16 -30 -16 -42 -1 -42 13 0 16 -11 7 -25 -23 -37 -26 -75 -6 -75 10 0 13 -13
7 -29 -6 -15 -28 -27 -48 -25 -21 1 -33 10 -27 18 5 9 20 10 33 2 18 -10 18
-6 2 15 -13 16 -21 49 -19 73 3 25 -4 39 -16 32 -12 -8 -14 1 -6 23 8 20 4 48
-8 62 -14 18 -15 29 0 38 15 9 15 25 0 52 -11 22 -15 39 -9 39 6 0 1 19 -11
42 -13 24 -14 37 -3 31 11 -7 19 8 17 35 -2 27 -10 44 -18 39 -8 -5 -15 0 -15
12 0 11 11 21 23 21 32 0 3 27 -34 32 -16 3 -24 -4 -18 -14 10 -16 -39 -27
-58 -13 -4 3 -22 -7 -40 -22 -27 -23 -34 -23 -43 0 -8 20 -36 26 -93 20 -57
-5 -74 -13 -54 -26 22 -14 20 -23 -10 -46 -21 -16 -31 -40 -24 -55 8 -14 0 -9
-17 12 -17 21 -26 46 -20 55 6 10 4 17 -6 15 -47 -8 -50 7 -6 34 34 21 37 27
10 17 -22 -7 -53 -15 -70 -18 -16 -3 -31 -20 -33 -38 -2 -24 0 -25 6 -5 8 25
15 25 47 -3 21 -18 33 -41 26 -52 -7 -10 4 -31 25 -46 21 -15 26 -27 12 -27
-14 0 -19 -10 -11 -23 8 -14 5 -18 -7 -10 -11 7 -26 -1 -33 -19 -16 -42 -15
-52 5 -40 9 6 16 -2 16 -18 0 -16 -6 -24 -14 -19 -8 5 -25 -4 -38 -19 -17 -22
-17 -32 1 -43 15 -10 19 -7 10 8 -8 13 -5 23 7 23 11 0 21 -19 21 -41 0 -26 8
-36 23 -27 15 9 18 5 8 -10 -11 -19 -21 -18 -44 1 -25 20 -27 16 -15 -32 11
-46 8 -54 -14 -41 -16 10 -13 0 7 -23 19 -22 28 -48 20 -57 -8 -9 -3 -10 11
-1 19 11 20 22 4 41 -16 19 -15 30 4 41 14 9 19 8 11 -1 -8 -9 -5 -28 8 -43
12 -15 14 -27 4 -27 -9 0 -3 -9 13 -20 26 -17 25 -20 -5 -22 -69 -6 -77 -8
-92 -34 -10 -15 -31 -20 -55 -11 -21 7 -33 8 -27 1 14 -16 394 -174 414 -173
8 1 -23 19 -70 40 -139 61 -85 149 79 129 101 -13 114 -23 123 -103 4 -34 14
-73 23 -87 17 -27 -14 -24 -98 11 -38 16 -38 15 0 -24 21 -22 49 -36 63 -31
53 18 109 -171 122 -414 8 -137 21 -231 33 -229 12 2 19 -77 18 -210 -2 -167
0 -185 10 -86 l12 128 50 -44 c28 -24 39 -38 25 -31 -16 8 -20 1 -13 -19 15
-37 41 -40 55 -6 8 19 10 19 11 -1 1 -15 13 -20 27 -12 14 8 5 -8 -20 -35 -51
-56 -40 -86 19 -55 26 14 57 14 96 1 31 -11 64 -14 73 -6 8 7 5 -2 -9 -19 -21
-28 -18 -32 21 -28 63 7 63 6 32 45 -24 32 -24 32 8 8 19 -16 34 -52 34 -80
-2 -43 -4 -46 -16 -16 -14 33 -17 34 -41 5 -15 -18 -24 -33 -19 -34 68 -14 89
-12 103 8 12 16 14 13 7 -9 -5 -17 1 -43 14 -56 18 -18 17 -22 -4 -17 -16 3
-33 -7 -38 -22 -6 -15 -2 -22 8 -16 11 6 32 3 48 -7 24 -15 22 -18 -8 -19 -30
0 -33 -6 -14 -28 18 -23 16 -31 -13 -38 -33 -9 -33 -10 -1 -12 41 -2 48 -81
10 -119 -20 -21 -19 -25 5 -19 20 4 28 -7 24 -31 -5 -25 1 -32 18 -22 14 9 19
7 12 -5 -7 -11 -45 -21 -84 -22 -39 -2 -67 5 -61 14 6 10 -1 22 -16 28 -17 7
-25 -5 -22 -33 2 -24 15 -41 28 -38 13 4 18 -3 11 -15 -15 -24 -74 -19 -93 9
-8 10 -35 21 -60 25 -35 4 -40 1 -18 -13 16 -10 36 -14 45 -9 9 6 16 0 16 -13
0 -13 -14 -18 -31 -11 -20 7 -37 -4 -48 -33 -15 -37 -19 -38 -20 -9 -1 45 -33
29 -46 -24 -8 -29 -2 -36 22 -29 28 9 28 6 -2 -19 -61 -50 -62 -50 295 -60
157 -4 143 -23 124 166 -4 39 1 81 12 95 13 18 9 25 -18 25 -27 0 -30 6 -13
23 18 18 15 30 -11 50 -32 26 -32 26 1 15 32 -11 34 1 25 134 -7 118 -3 153
24 183 37 40 48 176 17 199 -12 8 -2 29 23 51 34 30 38 44 20 76 -21 38 -26
364 -6 384 14 14 -45 125 -66 125 -39 0 -67 -62 -55 -122 7 -34 3 -79 -9 -101
-35 -66 -38 -119 -9 -175 90 -175 27 -336 -99 -251 -39 27 -79 49 -89 49 -18
0 -86 35 -156 80 -110 72 -41 232 82 190 82 -28 236 -36 193 -10 -14 8 -25 38
-25 67 0 57 -31 75 -139 84 -123 9 -289 95 -300 155 l-10 52 99 -50 99 -50
-10 98 c-5 56 1 117 15 143 20 36 19 61 -1 121 -46 134 -29 1059 20 1088 21
12 97 60 168 107 146 96 157 99 172 50 16 -54 20 -296 5 -320 -14 -22 -35
-205 -24 -205 4 0 22 24 41 52 19 29 24 47 12 39 -13 -8 -22 3 -22 29 0 23 8
38 17 32 50 -31 88 274 56 452 -6 33 -1 53 12 50 14 -3 20 50 16 156 -3 88 -4
282 -3 430 2 307 3 281 -3 480 -3 83 0 188 7 234 6 45 4 97 -6 113 -10 18 -8
36 4 43 11 7 15 21 9 32 -6 10 -15 75 -18 143 -11 212 -35 338 -65 349 -24 10
-25 15 -3 28 21 13 19 17 -8 18 -19 0 -35 -15 -35 -33 0 -19 -6 -28 -13 -21
-7 8 -26 3 -41 -9 -21 -18 -24 -16 -15 8 6 16 -2 35 -18 41 -20 8 -26 0 -18
-28z m137 -120 c18 1 14 -104 -9 -218 -15 -74 -12 -1401 3 -1470 5 -22 0 -51
-11 -65 -11 -14 -13 -25 -5 -25 30 0 -41 -67 -100 -94 -87 -41 -145 -75 -185
-110 -34 -30 -104 -41 -106 -18 -2 22 -3 1552 -1 1583 1 17 51 84 112 150 60
65 110 126 110 135 0 46 142 184 159 155 9 -13 23 -24 33 -23z m-464 -195 c6
-10 -8 -35 -32 -55 -24 -21 -35 -25 -26 -10 13 22 8 26 -21 15 -36 -14 -36
-14 0 26 40 44 63 51 79 24z m-293 -2249 c32 12 32 10 5 -24 -16 -21 -20 -31
-7 -24 17 10 23 -20 21 -111 -2 -69 4 -170 13 -225 9 -55 10 -94 2 -86 -8 8
-33 4 -57 -8 -134 -73 -252 -4 -201 119 14 35 20 68 11 74 -13 8 -15 181 -2
211 3 6 4 17 2 25 -1 8 7 16 18 18 11 1 31 4 45 5 14 2 23 14 20 27 -3 17 9
19 45 5 27 -10 65 -13 85 -6z m174 -916 c-6 -21 3 -43 21 -53 28 -16 29 -21 4
-42 -30 -25 -68 79 -43 119 6 10 3 18 -6 18 -10 0 -18 15 -18 33 0 28 3 27 26
-4 15 -20 22 -52 16 -71z m523 -1561 c8 -14 5 -18 -8 -10 -11 8 -27 5 -34 -7
-18 -29 -44 -25 -57 10 -14 37 77 43 99 7z"/>
<path d="M4911 5323 c-31 -42 -32 -47 -5 -25 31 25 34 22 27 -20 -5 -27 -19
-46 -32 -43 -14 4 -18 -4 -9 -18 10 -16 25 -10 51 22 20 25 31 54 24 65 -7 13
6 15 35 7 45 -12 45 -11 8 11 -22 14 -44 31 -50 39 -5 8 -28 -9 -49 -38z"/>
<path d="M4651 4862 c-8 -14 0 -17 23 -9 28 10 31 7 13 -12 -13 -14 -19 -40
-12 -57 7 -18 3 -25 -9 -18 -23 15 -79 -79 -59 -99 7 -8 13 1 13 18 0 18 8 38
19 44 10 7 18 -15 17 -48 -1 -32 -9 -57 -17 -55 -8 2 -14 -5 -13 -16 2 -11 14
-17 28 -14 14 3 26 -8 26 -25 0 -17 9 -31 21 -31 13 0 12 16 -3 44 -18 33 -18
46 -1 52 13 4 23 25 23 47 0 25 9 34 23 25 15 -9 18 -5 9 9 -8 13 -21 20 -28
15 -8 -4 -14 18 -15 50 0 32 7 58 17 58 10 0 13 -13 7 -29 -7 -19 -1 -25 17
-18 28 10 19 67 -11 67 -8 0 -29 5 -45 11 -17 7 -36 2 -43 -9z"/>
<path d="M4249 4505 c-12 -8 -28 -32 -36 -53 -12 -32 -9 -34 17 -12 26 22 29
20 18 -7 -7 -18 -4 -33 6 -33 10 0 19 27 19 60 0 33 -1 60 -2 60 0 0 -11 -7
-22 -15z"/>
<path d="M4674 4493 c-6 -15 0 -40 13 -53 18 -20 16 -23 -7 -11 -22 10 -21 6
3 -13 28 -24 29 -32 5 -65 -15 -21 -28 -48 -28 -60 0 -11 8 -9 18 6 13 21 19
21 28 -4 7 -17 1 -34 -12 -38 -13 -5 1 -13 31 -19 30 -6 55 -3 55 7 0 9 -11
17 -25 17 -16 1 -18 6 -4 15 24 17 25 45 3 80 -11 16 -5 25 15 25 17 0 31 8
31 18 0 10 -16 16 -35 15 -23 -2 -34 12 -35 45 0 55 -39 79 -56 35z"/>
<path d="M5873 4307 c-7 -8 -13 -33 -13 -57 0 -24 -6 -50 -14 -57 -24 -25 -24
-74 1 -60 15 8 14 3 -2 -14 -14 -15 -25 -39 -25 -54 0 -16 10 -22 25 -13 20
11 20 8 0 -13 -14 -15 -25 -35 -25 -44 0 -10 11 -11 25 -3 14 8 10 -2 -9 -24
-25 -29 -28 -47 -12 -76 16 -29 15 -34 -4 -22 -35 21 -9 -84 30 -123 36 -36
58 -1 41 66 -9 38 -6 47 13 35 20 -12 21 -9 4 13 -12 17 -20 119 -20 244 1
118 1 215 0 215 -1 0 -7 -6 -15 -13z"/>
<path d="M5681 3731 c-39 -47 -54 -549 -19 -614 40 -75 89 -9 81 109 -3 41 3
53 22 42 19 -12 19 -8 -1 17 -18 22 -27 99 -27 244 0 212 -12 255 -56 202z"/>
<path d="M4002 3374 c-1 -20 -11 -31 -22 -24 -18 11 -29 -15 -22 -55 1 -8 -11
-15 -26 -15 -15 0 -33 -14 -40 -32 -18 -48 -14 -72 9 -57 12 7 17 18 11 23 -6
6 10 28 34 48 24 20 36 37 25 37 -10 1 -2 13 18 28 20 14 31 39 25 55 -8 20
-11 18 -12 -8z"/>
<path d="M4080 3380 c0 -11 46 -67 101 -125 103 -106 110 -102 58 38 -21 55
-59 79 -59 37 0 -19 9 -27 23 -18 15 9 18 5 8 -10 -15 -24 -72 5 -68 35 5 40
-6 63 -33 63 -16 0 -30 -9 -30 -20z"/>
<path d="M3916 2894 c-30 -20 -12 -31 120 -74 l154 -50 -7 -150 c-9 -197 -197
-542 -489 -896 -91 -110 -105 -188 -40 -213 43 -16 71 8 59 52 -6 24 16 72 61
131 39 51 101 140 139 199 37 59 73 107 78 107 11 0 6 -887 -6 -1195 -4 -102
-16 -181 -25 -175 -10 6 -24 0 -32 -13 -9 -14 -6 -18 9 -9 27 17 29 -38 10
-360 -11 -191 -17 -222 -45 -214 -18 4 -68 -1 -112 -11 -78 -18 -77 -19 40
-17 70 1 137 13 160 30 31 23 32 26 5 17 -21 -7 -35 -2 -34 13 0 13 13 222 29
464 16 242 29 693 30 1003 0 559 0 564 48 648 l49 86 15 -78 c20 -112 -6
-1204 -41 -1689 -36 -493 -37 -500 -10 -500 12 0 16 8 10 19 -7 10 4 28 24 39
33 20 33 21 0 21 -26 1 -33 13 -26 46 5 25 15 161 22 303 7 142 17 277 22 300
6 23 17 411 27 862 9 456 26 869 39 930 29 145 32 200 13 258 -13 36 -10 44
11 33 15 -8 9 1 -13 18 -25 20 -42 24 -47 11 -5 -15 -15 -15 -35 2 -22 18 -28
17 -29 -5 0 -19 -6 -17 -20 7 -12 21 -33 29 -53 22 -22 -9 -28 -5 -18 11 19
31 -13 30 -45 -2 -20 -20 -23 -18 -12 10 15 40 12 41 -35 9z"/>
<path d="M2257 2770 c-32 -49 18 -306 72 -377 31 -41 48 -82 40 -95 -9 -14 -7
-19 5 -12 26 16 192 -221 174 -249 -8 -14 -5 -18 7 -10 11 7 62 -36 113 -95
98 -116 120 -162 47 -100 l-45 38 38 -45 c21 -25 43 -41 48 -35 6 5 76 -53
156 -130 81 -76 182 -162 227 -191 l80 -53 75 60 c211 167 195 191 -122 181
l-242 -7 -1 60 c0 46 -10 61 -44 66 -28 4 -39 16 -31 36 6 16 3 27 -7 25 -41
-12 -107 28 -107 65 0 34 6 36 42 17 34 -18 40 -18 27 2 -11 18 -6 22 17 13
18 -7 38 -4 44 5 6 10 -17 15 -50 10 -41 -5 -57 0 -48 15 8 13 5 17 -8 9 -11
-8 -27 -5 -33 6 -7 10 -27 14 -45 7 -24 -9 -28 -5 -16 14 12 20 7 23 -19 13
-26 -10 -32 -6 -24 16 6 16 3 35 -7 41 -10 6 -13 24 -7 41 8 20 -2 29 -31 29
-23 0 -42 10 -42 21 0 12 -9 16 -19 10 -24 -15 -65 58 -45 80 8 8 3 9 -11 1
-22 -13 -34 10 -27 53 1 8 -6 15 -15 15 -53 0 -122 156 -137 310 -9 88 -22
151 -29 140z"/>
<path d="M4092 2647 c-15 -145 -42 -215 -76 -195 -12 8 -17 2 -11 -14 14 -39
-22 -102 -49 -85 -13 8 -17 4 -8 -10 14 -23 -9 -31 -68 -25 -18 2 -22 -3 -10
-12 40 -32 31 -73 -31 -137 -45 -46 -55 -68 -36 -75 15 -6 8 -12 -17 -12 -31
-2 -41 -11 -33 -32 8 -22 -3 -30 -41 -30 -29 0 -52 9 -52 19 0 11 16 15 35 8
28 -8 29 -7 7 9 -16 11 -40 16 -53 11 -38 -15 -20 -77 21 -77 20 0 40 -10 44
-22 4 -13 -16 -21 -48 -19 -74 5 -117 -51 -85 -111 19 -35 18 -40 -4 -26 -36
22 -118 26 -105 5 6 -9 -4 -17 -22 -17 -18 0 -27 -8 -21 -18 6 -10 0 -23 -14
-28 -14 -5 0 -16 30 -24 30 -8 55 -25 56 -37 0 -13 36 16 80 64 43 48 73 97
66 108 -7 12 -4 15 8 8 12 -8 95 99 196 252 96 146 192 289 212 319 33 49 78
336 53 336 -6 0 -17 -60 -24 -133z"/>
<path d="M2373 2683 c-60 -66 -26 -183 54 -183 60 0 93 36 91 99 l-2 51 -13
-48 c-21 -74 -79 -101 -114 -53 -63 84 -5 183 78 132 39 -25 41 -24 16 6 -36
43 -69 42 -110 -4z"/>
<path d="M3904 2696 c-60 -60 -3 -191 72 -167 70 22 88 167 24 187 -24 7 -25
4 -5 -17 63 -67 2 -175 -66 -118 -32 26 -21 97 19 124 14 9 15 14 1 15 -12 0
-32 -11 -45 -24z"/>
<path d="M2520 2261 c0 -28 13 -41 41 -41 52 0 46 66 -6 76 -24 5 -35 -6 -35
-35z"/>
<path d="M5056 2045 c-13 -49 76 -214 97 -180 24 38 26 73 5 86 -10 7 -13 20
-7 30 6 11 2 19 -10 19 -29 0 -26 -55 4 -67 19 -7 19 -10 1 -11 -31 -2 -76 77
-69 123 3 19 1 35 -3 35 -5 0 -13 -16 -18 -35z"/>
<path d="M4760 1930 c-15 -18 -17 -29 -6 -26 12 3 45 -19 74 -50 31 -33 62
-50 77 -42 14 8 18 7 10 -2 -8 -9 -7 -26 3 -38 30 -36 41 -218 16 -252 -12
-16 -15 -23 -5 -15 19 16 69 -41 70 -80 1 -14 -17 -25 -39 -25 -41 0 -54 -29
-22 -49 10 -6 23 0 29 14 7 18 10 18 11 1 1 -13 -7 -29 -18 -36 -13 -8 -13
-25 0 -50 86 -161 15 -889 -81 -829 -9 5 -22 0 -29 -11 -7 -12 -1 -19 14 -15
16 3 28 -19 32 -60 5 -45 17 -65 40 -66 30 0 29 -4 -5 -30 -36 -27 -41 -26
-62 13 -20 38 -25 39 -54 10 -18 -18 -44 -32 -60 -32 -15 0 -38 -11 -51 -24
-18 -18 -30 -18 -46 -2 -13 13 -38 18 -55 13 -28 -9 -28 -7 -4 10 16 11 36 16
45 10 9 -5 16 0 16 12 0 11 -13 21 -30 21 -16 0 -36 0 -44 1 -20 0 -24 -52 -6
-81 19 -31 266 -30 277 1 3 11 14 15 22 9 9 -5 48 12 87 39 115 78 122 5 9
-101 -58 -55 -80 -89 -66 -101 12 -9 18 -15 14 -13 -5 3 -25 -4 -44 -15 -24
-12 -41 -12 -49 1 -7 11 -1 20 12 20 14 0 19 5 13 12 -25 24 -58 -14 -36 -41
36 -44 127 -18 186 52 62 73 62 73 36 -18 -18 -63 -16 -65 40 -65 61 0 68 12
46 71 -11 29 -17 28 -41 -14 -16 -26 -24 -33 -19 -15 29 98 35 257 11 301 -19
35 -25 163 -21 517 2 259 -4 545 -14 636 -14 128 -12 188 11 264 30 102 13
180 -40 180 -17 -1 -16 -6 3 -18 87 -55 -51 -37 -199 26 -19 8 -42 1 -58 -18z"/>
<path d="M40 1592 c0 -16 -5 -43 -12 -60 -13 -34 57 -44 147 -19 57 15 59 43
2 39 -24 -1 -47 9 -52 23 -5 16 4 21 28 13 30 -10 32 -8 7 9 -19 14 -37 14
-49 2 -25 -25 -57 -25 -41 1 7 11 3 20 -9 20 -11 0 -21 -13 -21 -28z"/>
<path d="M4698 1585 c-11 -72 -5 -205 9 -205 9 0 13 41 8 90 -5 50 -1 90 8 90
9 0 17 9 17 20 0 23 -39 28 -42 5z"/>
<path d="M1655 1394 c-9 -23 -24 -31 -40 -21 -19 11 -20 8 -3 -14 13 -16 21
-43 18 -61 -3 -17 7 -31 22 -31 16 0 28 7 28 16 0 10 -11 17 -25 17 -19 1 -18
5 2 18 14 9 23 38 20 64 -6 42 -9 43 -22 12z"/>
<path d="M5080 932 c0 -392 5 -485 31 -535 18 -33 30 -98 28 -144 -2 -46 6
-108 18 -139 13 -31 23 -70 23 -85 0 -16 18 -29 40 -29 22 0 40 9 40 20 0 11
-7 20 -15 20 -30 0 -90 204 -65 220 13 8 23 22 22 32 -1 10 7 19 18 21 11 1
30 3 41 4 12 2 16 12 9 23 -7 11 -4 20 7 20 10 0 23 12 29 27 11 29 -79 32
-124 4 -14 -8 -22 5 -22 36 0 44 45 85 85 76 28 -6 15 33 -15 44 -16 7 -30 2
-30 -9 0 -11 -10 -14 -23 -6 -15 9 -12 19 10 32 18 10 33 27 33 38 0 11 -7 16
-15 11 -9 -5 -37 2 -63 16 -39 21 -41 27 -14 37 17 7 32 6 32 -3 0 -9 13 -16
30 -16 18 0 23 8 12 21 -16 21 -15 71 9 302 10 95 12 179 8 255 -1 19 -10 39
-20 46 -10 6 -13 -3 -6 -21 7 -19 2 -29 -13 -26 -27 7 -46 -98 -25 -133 22
-35 27 -94 6 -82 -10 7 -18 -4 -17 -24 1 -19 -6 -52 -15 -73 -12 -30 -9 -36
13 -28 20 8 30 -2 32 -31 1 -24 -3 -31 -8 -17 -8 19 -17 17 -36 -9 -22 -30
-27 12 -29 263 -1 164 -7 303 -12 308 -5 5 -9 -205 -9 -466z"/>
<path d="M4418 1214 c-23 -79 -48 -153 -54 -164 -6 -11 2 -9 19 5 17 13 38 18
47 10 9 -8 10 -4 2 10 -8 15 -3 25 12 25 16 1 18 6 5 15 -32 24 -8 128 44 188
25 28 25 34 -2 44 -23 9 -40 -22 -73 -133z"/>
<path d="M4678 1355 c-1 -3 -4 -29 -5 -58 -2 -30 -10 -60 -18 -69 -25 -25 -17
-47 14 -36 18 7 27 38 25 90 -3 67 -8 92 -16 73z"/>
<path d="M5449 1298 c-13 -21 0 -315 14 -306 7 4 18 -5 24 -21 7 -19 -1 -26
-27 -21 -26 5 -34 -2 -27 -21 6 -16 21 -29 33 -29 16 0 16 -6 0 -22 -25 -25
-10 -103 16 -87 10 6 17 -9 16 -35 0 -25 -6 -35 -11 -21 -14 35 -40 31 -40 -5
0 -16 6 -30 14 -30 8 0 20 -13 26 -30 6 -16 1 -27 -11 -25 -12 3 -28 -16 -34
-41 -7 -26 -19 -46 -27 -45 -8 0 -14 -5 -13 -12 1 -7 -11 -20 -25 -29 -15 -10
-18 -18 -7 -19 11 -1 36 -5 55 -9 19 -3 40 2 46 12 6 10 2 18 -10 18 -11 0
-21 10 -21 21 0 12 9 16 20 9 11 -7 28 8 37 32 l16 45 12 -44 c7 -27 4 -38
-10 -30 -12 8 -15 4 -7 -10 10 -16 23 -16 51 1 36 22 41 46 19 86 -23 42 -6
80 32 74 31 -4 34 -1 12 13 -16 11 -45 16 -65 12 -38 -7 -41 56 -5 114 8 14 6
18 -7 10 -14 -9 -19 14 -13 68 4 45 -1 76 -10 70 -10 -6 -14 7 -8 28 6 22 35
51 66 64 53 24 54 27 26 76 -25 42 -25 45 -1 16 16 -19 36 -28 45 -20 9 8 10
4 3 -9 -8 -13 -5 -28 5 -35 11 -6 22 9 26 33 3 25 23 49 43 53 22 4 32 -2 25
-14 -7 -11 -5 -25 5 -31 10 -6 17 9 15 33 -1 25 8 43 20 41 12 -2 21 9 21 24
0 31 -35 31 -58 0 -9 -12 -15 -9 -15 7 0 15 -13 22 -29 16 -15 -6 -32 -1 -35
10 -8 22 -215 35 -227 15z"/>
<path d="M5565 1050 c-32 -36 -31 -43 4 -43 16 0 27 8 25 19 -2 10 9 24 24 29
19 7 23 2 11 -17 -14 -24 -12 -24 17 -1 43 35 43 34 -11 37 -25 2 -56 -9 -70
-24z"/>
<path d="M3700 1043 c0 -12 -10 -21 -23 -18 -29 6 -60 -101 -34 -117 11 -7 9
-25 -7 -45 -23 -29 -22 -30 9 -6 30 24 35 24 35 0 1 -18 5 -20 15 -5 8 12 29
27 45 33 17 7 7 13 -25 13 -63 2 -68 23 -22 93 18 28 27 56 20 63 -7 7 -13 2
-13 -11z"/>
<path d="M4620 971 c0 -13 11 -35 25 -50 21 -22 18 -25 -15 -14 -37 12 -38 11
-5 -14 19 -15 35 -40 35 -55 -1 -23 -5 -22 -21 2 -17 24 -20 21 -15 -16 12
-91 46 -52 49 58 3 84 -3 111 -25 111 -15 0 -28 -10 -28 -22z"/>
<path d="M1380 930 c-2 -22 -6 -61 -8 -86 -3 -25 1 -50 9 -55 9 -5 10 -28 4
-51 -6 -25 1 -49 17 -60 15 -9 19 -18 7 -18 -12 0 -22 -20 -22 -45 -1 -25 -9
-62 -18 -83 -13 -31 -9 -36 18 -26 18 7 33 4 33 -7 0 -10 -9 -19 -20 -19 -11
0 -20 -14 -20 -31 0 -17 9 -26 20 -19 11 7 20 3 20 -9 0 -33 -36 -25 -58 14
-12 19 -21 24 -21 11 -1 -13 12 -36 28 -52 16 -16 23 -36 15 -44 -8 -8 15 -11
50 -6 35 5 60 2 55 -6 -5 -8 1 -22 13 -30 26 -15 28 -27 -62 392 -31 149 -59
252 -60 230z"/>
<path d="M4449 850 c-9 -55 -19 -113 -22 -130 -2 -16 -16 -69 -29 -118 -18
-66 -19 -96 -1 -124 18 -30 17 -34 -7 -25 -22 8 -29 -2 -28 -36 2 -32 6 -36
12 -13 5 19 21 29 36 23 22 -8 25 12 19 96 -6 72 -3 97 10 78 10 -17 24 -24
31 -18 6 7 0 25 -16 40 -31 31 -22 84 11 64 12 -7 16 -4 9 6 -7 11 1 44 16 74
16 30 20 49 11 43 -41 -25 -39 32 2 73 29 29 33 40 12 32 -18 -7 -36 -2 -41
11 -4 13 -15 -21 -25 -76z"/>
<path d="M4627 515 c-23 -37 -26 -77 -5 -64 10 7 13 22 5 33 -8 14 -4 16 10 8
13 -8 20 -21 15 -29 -5 -8 -1 -28 9 -44 13 -21 18 -12 19 35 0 69 -28 102 -53
61z"/>
<path d="M4570 382 c3 -18 15 -30 28 -27 12 3 22 -4 22 -15 0 -11 9 -20 20
-20 11 0 20 14 20 30 0 17 -11 28 -25 25 -14 -3 -23 5 -21 17 2 12 -8 21 -23
21 -14 0 -24 -14 -21 -31z"/>
<path d="M4372 370 c-50 -38 -27 -91 37 -85 52 4 66 23 33 44 -10 6 -23 0 -29
-14 -7 -14 -6 0 0 30 13 63 11 64 -41 25z"/>
<path d="M5327 369 c-17 -44 -5 -49 105 -51 165 -4 173 -2 144 30 -14 16 -30
28 -36 27 -5 -1 -26 6 -46 14 -25 11 -45 4 -66 -21 -17 -21 -26 -28 -20 -15 7
13 -2 28 -20 35 -44 17 -48 16 -61 -19z"/>
<path d="M1753 284 c-23 -37 20 -65 69 -46 44 18 45 22 3 30 -8 1 -26 9 -39
18 -13 8 -28 7 -33 -2z"/>
<path d="M1522 255 c-1 -20 -18 -35 -41 -35 -21 0 -44 -8 -50 -18 -6 -10 -46
-14 -90 -10 -43 4 -84 -1 -91 -11 -7 -12 -30 -12 -62 0 -79 30 -168 24 -168
-11 0 -16 0 -37 0 -45 0 -8 38 -15 85 -16 59 0 83 -8 80 -26 -4 -14 3 -20 15
-13 11 7 14 23 6 36 -9 15 -2 15 18 -2 23 -18 36 -19 46 -4 10 16 22 15 42 -2
25 -20 26 -16 9 28 -16 42 -14 50 10 41 16 -6 25 -18 20 -26 -5 -8 3 -14 18
-14 15 0 23 13 18 31 -5 18 4 10 20 -18 16 -27 37 -51 46 -53 60 -9 106 -36
114 -64 4 -18 9 -11 9 17 0 61 -50 264 -54 215z"/>
<path d="M0 161 c0 -26 10 -36 28 -29 48 18 56 68 11 68 -25 0 -39 -14 -39
-39z"/>
<path d="M4462 156 c-1 -29 -11 -59 -21 -65 -11 -7 -14 -25 -9 -40 8 -20 0
-25 -32 -17 -25 7 -38 22 -32 39 6 15 1 27 -10 27 -11 0 -14 10 -6 23 9 15 5
18 -9 9 -52 -32 -14 -122 53 -125 66 -4 102 73 78 166 -6 26 -10 21 -12 -17z"/>
<path d="M5329 139 c-23 -38 32 -83 67 -54 25 20 28 20 17 0 -9 -14 -6 -25 6
-25 11 0 21 19 21 41 0 23 9 36 20 29 12 -7 16 -21 10 -30 -6 -9 -3 -22 7 -28
10 -7 23 7 29 30 6 23 6 37 -1 30 -6 -6 -24 -1 -40 12 -22 18 -32 17 -46 -5
-13 -20 -18 -21 -19 -4 0 30 -53 33 -71 4z"/>
</g>
</svg>
